<?xml version="1.0" encoding="UTF-8"?><svg id="a" xmlns="http://www.w3.org/2000/svg" viewBox="0 0 84 24"><defs><style>.d{fill:#fff;}</style></defs><g id="b"><path class="d" d="m83,1v22H1V1h82M84,0H0v24h84V0h0Z"/></g><g id="c"><path class="d" d="m18.97,13.36h-1.61v1.93h-1.58v-6.76h3.04c1.83,0,2.87.85,2.87,2.35,0,1.04-.46,1.8-1.31,2.18l1.49,2.23h-1.79l-1.11-1.93Zm-.15-1.28c.87,0,1.37-.39,1.37-1.16s-.5-1.13-1.37-1.13h-1.46v2.29h1.46Z"/><path class="d" d="m24.6,9.79v1.47h3.38v1.26h-3.38v1.5h3.86v1.27h-5.45v-6.76h5.34v1.26h-3.75Zm1.52-1.89h-1.22l1.06-1.57,1.43.52-1.27,1.05Z"/><path class="d" d="m34.92,9.2l-.61,1.27c-.74-.42-1.62-.7-2.18-.7-.53,0-.89.18-.89.55,0,1.25,3.73.55,3.72,2.99,0,1.32-1.19,2.04-2.74,2.04-1.15,0-2.3-.42-3.09-1.07l.63-1.25c.72.62,1.74,1.01,2.48,1.01.65,0,1.04-.23,1.04-.65,0-1.28-3.73-.53-3.73-2.93,0-1.23,1.09-2,2.71-2,.98,0,1.96.29,2.66.73Z"/><path class="d" d="m37.65,9.79v1.47h3.38v1.26h-3.38v1.5h3.86v1.27h-5.45v-6.76h5.33v1.26h-3.75Z"/><path class="d" d="m45.95,13.36h-1.61v1.93h-1.58v-6.76h3.04c1.83,0,2.87.85,2.87,2.35,0,1.04-.46,1.8-1.31,2.18l1.49,2.23h-1.79l-1.11-1.93Zm-.15-1.28c.87,0,1.37-.39,1.37-1.16s-.5-1.13-1.37-1.13h-1.46v2.29h1.46Z"/><path class="d" d="m51.91,15.29l-2.75-6.76h1.7l1.91,5.1,1.92-5.1h1.63l-2.78,6.76h-1.63Z"/><path class="d" d="m58.67,9.79v1.47h3.38v1.26h-3.38v1.5h3.86v1.27h-5.45v-6.76h5.34v1.26h-3.75Z"/><path class="d" d="m66.97,13.36h-1.61v1.93h-1.58v-6.76h3.04c1.83,0,2.87.85,2.87,2.35,0,1.04-.46,1.8-1.31,2.18l1.49,2.23h-1.79l-1.11-1.93Zm-.15-1.28c.87,0,1.37-.39,1.37-1.16s-.5-1.13-1.37-1.13h-1.46v2.29h1.46Z"/></g></svg>