<?xml version="1.0" encoding="UTF-8"?><svg id="a" xmlns="http://www.w3.org/2000/svg" viewBox="0 0 82.88 4.19"><defs><style>.b{fill:#fff;}</style></defs><path class="b" d="m1.65,1.15s.04.11.04.2-.02.16-.05.2c-.03.04-.08.06-.14.06-.03,0-.06,0-.08-.02-.02-.01-.04-.03-.07-.06-.03-.03-.05-.05-.08-.07s-.06-.03-.11-.03c-.04,0-.07.01-.1.03v.03s0,.05.02.08c.02.04.05.06.07.08.02.02.06.03.11.04,0,0,.02,0,.06.02s.06.03.08.07c.02.04.03.07.03.11,0,.06-.05.13-.16.19-.07.04-.13.06-.18.06-.06,0-.1-.03-.14-.09-.01-.02-.02-.05-.02-.07,0-.02,0-.05.01-.09,0-.04.01-.07.01-.1,0-.04-.01-.08-.03-.12-.02-.04-.04-.06-.08-.07-.04,0-.06.03-.08.07-.02.04-.03.08-.03.11,0,.02,0,.05.02.1s.02.07.02.09c0,.03,0,.05-.02.08-.04.07-.08.1-.14.1-.03,0-.09-.02-.18-.07-.11-.06-.16-.12-.16-.2,0-.03,0-.06.03-.1.02-.03.03-.04.05-.05.02,0,.05-.02.09-.03.05-.01.09-.02.11-.04.02-.02.05-.04.07-.08.01-.02.02-.04.02-.07s0-.04,0-.05c-.03-.02-.06-.03-.1-.03-.05,0-.08,0-.1.02-.02.02-.05.04-.09.07-.03.03-.05.05-.07.06-.02.01-.04.02-.08.02-.07,0-.12-.02-.14-.06-.03-.04-.04-.11-.04-.2,0-.17.06-.26.19-.26.03,0,.06,0,.08.02.02.01.04.03.07.06.03.03.06.05.08.07s.06.02.11.02c.04,0,.08,0,.1-.03,0-.01,0-.02,0-.04,0-.02,0-.04-.02-.07-.02-.04-.05-.06-.07-.08-.02-.01-.06-.03-.11-.04-.04-.01-.07-.02-.09-.03-.02,0-.04-.03-.05-.05-.02-.05-.03-.08-.03-.11,0-.06.06-.13.17-.19.06-.04.12-.06.18-.06.06,0,.1.03.14.09.02.03.02.05.02.08,0,.02,0,.05-.02.09s-.02.08-.02.1c0,.04.01.08.03.11.01.04.04.06.08.07.04,0,.06-.03.08-.07.02-.04.03-.08.03-.12,0-.02,0-.05-.02-.1-.01-.04-.02-.07-.02-.09,0-.03,0-.05.02-.08.04-.06.09-.1.14-.1.04,0,.1.02.18.07.11.06.16.12.16.19,0,.03,0,.06-.03.1-.02.03-.04.06-.08.07-.03.01-.05.02-.06.02-.05.01-.09.02-.11.04-.02.02-.05.04-.07.08-.03.03-.03.07-.02.11.03.02.06.03.1.03.05,0,.08,0,.11-.03s.06-.04.08-.07c.02-.02.04-.04.06-.05s.05-.02.08-.02c.07,0,.12.02.14.06Z"/><path class="b" d="m2.44,1.16c.31-.31.74-.46,1.29-.46.15,0,.28.01.37.03.1.02.22.06.36.1.1.04.18.06.25.08s.15.03.24.03c-.02.12-.02.26-.02.42,0,.08,0,.15,0,.21,0,.06,0,.1.02.1h-.18c-.05-.22-.16-.41-.35-.57s-.39-.24-.62-.24c-.31,0-.56.14-.73.41s-.26.67-.26,1.18.09.86.27,1.13c.18.27.43.4.74.4.24,0,.45-.08.63-.23.18-.15.29-.34.34-.58h.2c-.02.19-.03.35-.03.48,0,.11,0,.2.02.27h-.03c-.07,0-.14,0-.21.03-.07.02-.17.04-.29.08-.17.05-.31.09-.41.11s-.22.04-.34.04c-.35,0-.66-.07-.92-.21-.26-.14-.46-.34-.6-.6-.14-.26-.21-.57-.21-.92,0-.56.16-.99.47-1.3Z"/><path class="b" d="m5.61,1.99c.21-.22.53-.32.95-.32s.74.11.95.32c.21.22.31.53.31.93,0,.84-.42,1.26-1.26,1.26-.42,0-.74-.11-.95-.32s-.32-.53-.32-.94.11-.72.32-.93Zm.59,1.76c.07.16.2.24.37.24s.29-.08.36-.24c.07-.16.11-.43.11-.82s-.04-.67-.11-.83c-.07-.16-.19-.24-.36-.24s-.29.08-.37.24c-.07.16-.11.44-.11.83s.04.65.11.81Z"/><path class="b" d="m10.93,3.94v.19h-1.29v-.19h.22s.07-.04.07-.1v-1.37c0-.2-.02-.34-.05-.42-.03-.08-.1-.12-.22-.12-.1,0-.19.04-.29.12-.09.08-.17.21-.23.37-.06.16-.09.36-.09.58v.83c0,.07.02.11.07.11h.22s0,.18,0,.18h-1.3v-.19h.19s.07-.04.07-.1v-1.83c0-.06-.02-.1-.07-.11h-.19s0-.18,0-.18h1.03c-.02.06-.03.12-.03.2v.32c.08-.18.2-.32.35-.42.15-.1.33-.15.53-.15.26,0,.44.07.56.2.12.13.18.34.18.62v1.37c0,.07.02.11.07.11h.19Z"/><path class="b" d="m11.39,1.99c.17-.21.43-.32.76-.32.17,0,.32.04.45.13s.21.19.25.31V.28c0-.08-.02-.11-.07-.11h-.26s0-.17,0-.17h1.08v3.85c0,.07.02.11.07.11h.19s0,.18,0,.18h-1.04s.01-.06.01-.09v-.12s0-.07,0-.1c0-.02,0-.04,0-.05-.05.13-.13.23-.24.3-.11.07-.26.11-.44.11-.37,0-.63-.1-.79-.31-.16-.2-.24-.52-.24-.95s.09-.74.26-.95Zm.57,1.54c.02.14.07.24.13.31.06.06.15.1.25.1.17,0,.3-.07.38-.21.08-.14.12-.35.12-.64v-.24c0-.29-.04-.51-.13-.67-.09-.16-.21-.24-.37-.24-.15,0-.26.09-.32.26-.06.17-.09.42-.09.76,0,.25.01.45.04.59Z"/><path class="b" d="m15.07,3.85c0,.08.02.11.07.11h.19s0,.18,0,.18h-1.26v-.19h.19s.01.01.01.01c.04,0,.06-.04.06-.11v-1.83c0-.06-.02-.1-.07-.11h-.19s0-.18,0-.18h1v2.12Zm-.07-3.34c.08.06.12.15.12.25s-.04.2-.12.26c-.08.06-.19.1-.31.1s-.23-.03-.31-.1c-.08-.06-.12-.15-.12-.26s.04-.19.12-.25c.08-.06.19-.1.31-.1s.23.03.31.1Z"/><path class="b" d="m16.58,1.73h.56v.18h-.56v1.73c0,.13.02.22.05.27s.09.07.16.07c.05,0,.09-.02.14-.06.05-.04.09-.09.12-.16l.15.08c-.05.12-.13.21-.23.26s-.24.08-.39.08c-.23,0-.41-.04-.54-.13-.13-.09-.2-.23-.2-.42v-1.72h-.34v-.18c.15,0,.27-.01.35-.04.08-.03.14-.08.19-.16.05-.08.09-.2.13-.37h.41v.58Z"/><path class="b" d="m18.4,3.85c0,.08.02.11.07.11h.19s0,.18,0,.18h-1.26v-.19h.19s.01.01.01.01c.04,0,.06-.04.06-.11v-1.83c0-.06-.02-.1-.07-.11h-.19s0-.18,0-.18h1v2.12Zm-.07-3.34c.08.06.12.15.12.25s-.04.2-.12.26c-.08.06-.19.1-.31.1s-.23-.03-.31-.1c-.08-.06-.12-.15-.12-.26s.04-.19.12-.25c.08-.06.19-.1.31-.1s.23.03.31.1Z"/><path class="b" d="m19.2,1.99c.21-.22.53-.32.95-.32s.74.11.95.32c.21.22.31.53.31.93,0,.84-.42,1.26-1.26,1.26-.42,0-.74-.11-.95-.32s-.32-.53-.32-.94.11-.72.32-.93Zm.59,1.76c.07.16.2.24.37.24s.29-.08.36-.24c.07-.16.11-.43.11-.82s-.04-.67-.11-.83c-.07-.16-.19-.24-.36-.24s-.29.08-.37.24c-.07.16-.11.44-.11.83s.04.65.11.81Z"/><path class="b" d="m24.52,3.94v.19h-1.29v-.19h.22s.07-.04.07-.1v-1.37c0-.2-.02-.34-.05-.42-.03-.08-.1-.12-.22-.12-.1,0-.19.04-.29.12-.09.08-.17.21-.23.37-.06.16-.09.36-.09.58v.83c0,.07.02.11.07.11h.22s0,.18,0,.18h-1.3v-.19h.19s.07-.04.07-.1v-1.83c0-.06-.02-.1-.07-.11h-.19s0-.18,0-.18h1.03c-.02.06-.03.12-.03.2v.32c.08-.18.2-.32.35-.42.15-.1.33-.15.53-.15.26,0,.44.07.56.2.12.13.18.34.18.62v1.37c0,.07.02.11.07.11h.19Z"/><path class="b" d="m24.81,3.33h.19c0,.18.08.34.24.47s.35.19.58.19c.12,0,.22-.03.3-.09.07-.06.11-.14.11-.25,0-.09-.03-.16-.08-.21-.06-.05-.15-.09-.28-.13l-.41-.11c-.22-.06-.38-.15-.48-.28-.1-.12-.16-.28-.16-.48,0-.23.08-.42.24-.57.16-.15.39-.22.69-.22.08,0,.15,0,.22.02.06.01.14.03.24.06.12.03.22.05.28.05.06,0,.12-.01.17-.04l-.03.65h-.17c0-.14-.06-.27-.18-.37-.12-.11-.28-.16-.48-.16-.12,0-.21.03-.28.09s-.1.13-.1.22c0,.07.03.13.08.18.05.05.13.09.23.12l.39.1c.26.07.44.16.54.29s.14.29.14.48c0,.27-.09.48-.27.63-.18.15-.42.22-.72.22-.09,0-.17,0-.26-.03-.09-.02-.23-.05-.42-.1-.06-.02-.11-.02-.16-.02-.08,0-.14.01-.18.03l.03-.75Z"/><path class="b" d="m28.49,1.99c.17-.21.43-.32.76-.32.17,0,.32.04.45.13s.21.19.25.31V.28c0-.08-.02-.11-.07-.11h-.26s0-.17,0-.17h1.08v3.85c0,.07.02.11.07.11h.19s0,.18,0,.18h-1.04s.01-.06.01-.09v-.12s0-.07,0-.1c0-.02,0-.04,0-.05-.05.13-.13.23-.24.3-.11.07-.26.11-.44.11-.37,0-.63-.1-.79-.31-.16-.2-.24-.52-.24-.95s.09-.74.26-.95Zm.57,1.54c.02.14.07.24.13.31.06.06.15.1.25.1.17,0,.3-.07.38-.21.08-.14.12-.35.12-.64v-.24c0-.29-.04-.51-.13-.67-.09-.16-.21-.24-.37-.24-.15,0-.26.09-.32.26-.06.17-.09.42-.09.76,0,.25.01.45.04.59Z"/><path class="b" d="m33.28,1.95c.21.19.31.45.31.8v.21h-1.63c0,.33.06.57.18.74.12.17.3.26.54.26.18,0,.33-.04.46-.13.13-.09.22-.2.28-.33l.15.11c-.09.19-.23.33-.42.43-.19.1-.42.15-.69.15-.45,0-.78-.1-.99-.31-.21-.2-.31-.52-.31-.95s.11-.75.32-.96c.22-.21.54-.31.96-.31.34,0,.62.09.82.28Zm-1.2.16c-.08.17-.11.39-.11.65h.75s.07-.01.08-.04c.02-.03.03-.08.03-.15,0-.25-.03-.43-.09-.54-.06-.12-.16-.18-.3-.18-.16,0-.28.08-.36.25Z"/><path class="b" d="m37.51,1.73v.19h-.18s-.02-.01-.02-.01c-.05,0-.09.03-.11.08l-.89,2.18h-.35l-.87-2.19s-.02-.04-.05-.06c-.02-.02-.05-.02-.07-.02h-.18s0-.18,0-.18h1.42v.19h-.23s-.05,0-.07.02-.03.05-.01.08l.54,1.31.52-1.33s.01-.03.01-.05c0-.03-.02-.05-.06-.05h-.23s0-.18,0-.18h.82Z"/><path class="b" d="m39.63,1.95c.21.19.31.45.31.8v.21h-1.63c0,.33.06.57.18.74.12.17.3.26.54.26.18,0,.33-.04.46-.13.13-.09.22-.2.28-.33l.15.11c-.09.19-.23.33-.42.43-.19.1-.42.15-.69.15-.45,0-.78-.1-.99-.31-.21-.2-.31-.52-.31-.95s.11-.75.32-.96c.22-.21.54-.31.96-.31.34,0,.62.09.82.28Zm-1.2.16c-.08.17-.11.39-.11.65h.75s.07-.01.08-.04c.02-.03.03-.08.03-.15,0-.25-.03-.43-.09-.54-.06-.12-.16-.18-.3-.18-.16,0-.28.08-.36.25Z"/><path class="b" d="m43.04,3.94v.19h-1.29v-.19h.22s.07-.04.07-.1v-1.37c0-.2-.02-.34-.05-.42s-.1-.12-.22-.12c-.1,0-.19.04-.29.12s-.17.21-.23.37c-.06.16-.09.36-.09.58v.83c0,.07.02.11.07.11h.22s0,.18,0,.18h-1.3v-.19h.19s.07-.04.07-.1v-1.83c0-.06-.02-.1-.07-.11h-.19s0-.18,0-.18h1.03c-.02.06-.03.12-.03.2v.32c.08-.18.2-.32.35-.42.15-.1.33-.15.53-.15.26,0,.44.07.56.2.12.13.18.34.18.62v1.37c0,.07.02.11.07.11h.19Z"/><path class="b" d="m44.25,1.73h.56v.18h-.56v1.73c0,.13.02.22.05.27.03.05.09.07.16.07.04,0,.09-.02.14-.06s.09-.09.12-.16l.15.08c-.05.12-.12.21-.23.26-.1.05-.23.08-.39.08-.23,0-.41-.04-.54-.13-.13-.09-.2-.23-.2-.42v-1.72h-.34v-.18c.15,0,.27-.01.35-.04s.14-.08.19-.16c.05-.08.09-.2.13-.37h.41v.58Z"/><path class="b" d="m47.17,1.95c.21.19.31.45.31.8v.21h-1.63c0,.33.06.57.18.74.12.17.3.26.54.26.18,0,.33-.04.46-.13.13-.09.22-.2.28-.33l.15.11c-.09.19-.23.33-.42.43-.19.1-.42.15-.69.15-.45,0-.78-.1-.99-.31-.21-.2-.31-.52-.31-.95s.11-.75.32-.96c.21-.21.54-.31.96-.31.34,0,.62.09.82.28Zm-1.2.16c-.08.17-.11.39-.11.65h.75s.07-.01.08-.04c.02-.03.03-.08.03-.15,0-.25-.03-.43-.09-.54-.06-.12-.16-.18-.3-.18-.16,0-.28.08-.36.25Z"/><path class="b" d="m47.83,3.33h.19c0,.18.08.34.24.47.16.13.35.19.58.19.12,0,.22-.03.3-.09.07-.06.11-.14.11-.25,0-.09-.03-.16-.08-.21-.05-.05-.15-.09-.28-.13l-.41-.11c-.22-.06-.38-.15-.48-.28-.1-.12-.16-.28-.16-.48,0-.23.08-.42.24-.57s.39-.22.69-.22c.08,0,.15,0,.22.02.06.01.14.03.24.06.12.03.22.05.28.05.06,0,.12-.01.17-.04l-.03.65h-.17c0-.14-.06-.27-.18-.37-.12-.11-.28-.16-.48-.16-.12,0-.21.03-.28.09-.07.06-.11.13-.11.22,0,.07.03.13.08.18.05.05.13.09.23.12l.39.1c.26.07.44.16.54.29s.14.29.14.48c0,.27-.09.48-.27.63-.18.15-.42.22-.72.22-.09,0-.17,0-.26-.03s-.23-.05-.42-.1c-.06-.02-.11-.02-.16-.02-.08,0-.14.01-.18.03l.03-.75Z"/><path class="b" d="m51.34,3.33h.19c0,.18.08.34.24.47.16.13.35.19.58.19.12,0,.22-.03.3-.09.07-.06.11-.14.11-.25,0-.09-.03-.16-.08-.21-.05-.05-.15-.09-.28-.13l-.41-.11c-.22-.06-.38-.15-.48-.28-.1-.12-.16-.28-.16-.48,0-.23.08-.42.24-.57s.39-.22.69-.22c.08,0,.15,0,.22.02.06.01.14.03.24.06.12.03.22.05.28.05.06,0,.12-.01.17-.04l-.03.65h-.17c0-.14-.06-.27-.18-.37-.12-.11-.28-.16-.48-.16-.12,0-.21.03-.28.09-.07.06-.11.13-.11.22,0,.07.03.13.08.18.05.05.13.09.23.12l.39.1c.26.07.44.16.54.29s.14.29.14.48c0,.27-.09.48-.27.63-.18.15-.42.22-.72.22-.09,0-.17,0-.26-.03s-.23-.05-.42-.1c-.06-.02-.11-.02-.16-.02-.08,0-.14.01-.18.03l.03-.75Z"/><path class="b" d="m56.37,3.94v.19h-1.04c.02-.06.03-.14.03-.25v-.25c-.17.37-.46.56-.86.56-.25,0-.42-.07-.54-.2-.11-.13-.17-.35-.17-.64v-1.34c0-.07-.02-.11-.07-.11h-.19s0-.18,0-.18h1v1.66c0,.19.02.33.05.41.03.08.1.12.2.12.09,0,.18-.04.27-.12.09-.08.16-.2.22-.35s.09-.34.09-.56v-.87c0-.08-.02-.11-.07-.11h-.22s0-.18,0-.18h1.04v2.12c0,.07.02.1.07.11h.19Z"/><path class="b" d="m58.66,1.81c.1.09.16.22.16.37,0,.11-.03.2-.1.26-.07.06-.15.08-.24.08-.08,0-.15-.02-.21-.06-.06-.04-.09-.1-.09-.17,0-.03,0-.07.02-.12.01-.07.02-.11.02-.11,0-.08-.04-.12-.11-.12-.1,0-.19.06-.26.17-.08.11-.14.25-.18.42-.04.17-.06.33-.07.48v.85c0,.07.02.11.07.11h.39s0,.18,0,.18h-1.44v-.19h.16s.07-.02.07-.1v-1.83c0-.08-.02-.11-.07-.11h-.18s0-.18,0-.18h1.03s-.02.06-.02.11c0,.05-.01.1-.01.15v.26c.14-.39.36-.58.67-.58.16,0,.29.05.4.14Z"/><path class="b" d="m63.6,3.93v.21h-1.7v-.21h.26c.11.02.17-.02.17-.12,0-.06-.02-.14-.06-.22l-.21-.5h-1.25l-.19.46c-.05.12-.08.21-.08.28,0,.08.04.12.12.11l.25-.02v.21h-1.03v-.21h.16s.02.01.02.01c.08,0,.14-.04.19-.11.06-.08.11-.19.17-.33l1.17-2.8h.28l1.18,2.82c.05.14.11.24.17.32.05.07.12.1.2.1h.17Zm-2.7-1.04h1.09l-.55-1.3-.54,1.3Z"/><path class="b" d="m63.71,3.92l.22.02c.06,0,.08-.04.08-.12V1.07s-.01-.06-.03-.09c-.02-.02-.05-.03-.08-.03h-.2s0-.2,0-.2h1.48v.21h-.28s-.01-.01-.01-.01c-.03,0-.05.01-.07.03-.02.02-.03.05-.03.08v2.79s.02.07.07.07h.47c.25,0,.43-.06.56-.2.13-.13.19-.32.19-.57h.19v.99c-.07-.01-.3-.02-.7-.02h-1.86v-.22Z"/><path class="b" d="m66.62,3.92l.22.02c.06,0,.08-.04.08-.12V1.07s-.01-.06-.03-.09c-.02-.02-.05-.03-.08-.03h-.2s0-.2,0-.2h1.48v.21h-.28s-.01-.01-.01-.01c-.03,0-.05.01-.07.03-.02.02-.03.05-.03.08v2.79s.02.07.07.07h.47c.25,0,.43-.06.56-.2.13-.13.19-.32.19-.57h.19v.99c-.07-.01-.3-.02-.7-.02h-1.86v-.22Z"/><path class="b" d="m69.71,3.46c.1-.08.22-.12.37-.12s.28.04.38.12c.1.08.15.18.15.31s-.05.24-.15.31c-.1.08-.23.11-.38.11s-.28-.04-.38-.11c-.1-.08-.14-.18-.14-.31s.05-.23.15-.31Z"/><path class="b" d="m71.51,1.16c.31-.31.74-.46,1.29-.46.15,0,.28.01.37.03.1.02.22.06.36.1.1.04.18.06.25.08.07.02.15.03.24.03-.02.12-.02.26-.02.42,0,.08,0,.15,0,.21,0,.06,0,.1.02.1h-.18c-.04-.22-.16-.41-.35-.57-.18-.16-.39-.24-.62-.24-.31,0-.56.14-.73.41s-.26.67-.26,1.18.09.86.27,1.13c.18.27.43.4.74.4.24,0,.45-.08.63-.23s.29-.34.34-.58h.2c-.02.19-.03.35-.03.48,0,.11,0,.2.02.27h-.03c-.07,0-.14,0-.21.03-.07.02-.17.04-.29.08-.17.05-.31.09-.41.11-.1.02-.22.04-.34.04-.36,0-.66-.07-.92-.21s-.46-.34-.6-.6c-.14-.26-.21-.57-.21-.92,0-.56.16-.99.47-1.3Z"/><path class="b" d="m74.88,1.15c.31-.3.74-.45,1.29-.45s1,.15,1.3.46c.3.31.45.73.45,1.29s-.15.99-.46,1.29-.74.46-1.29.46-.99-.15-1.29-.46-.46-.74-.46-1.29.15-.99.46-1.29Zm.49,2.23c.06.23.16.38.29.48.13.09.3.14.51.14s.38-.05.51-.14c.13-.09.22-.25.29-.48.06-.22.1-.54.1-.93s-.03-.7-.1-.93-.16-.39-.29-.48c-.13-.09-.3-.14-.51-.14s-.38.05-.51.14c-.13.09-.22.25-.29.48s-.1.54-.1.93.03.71.1.93Z"/><path class="b" d="m82.88,3.93v.21h-1.49v-.21h.28c.08.01.11-.03.11-.11V1.3l-1.3,2.9h-.18l-1.46-3.04v2.66c0,.08.04.12.11.12h.28s0,.2,0,.2h-.95v-.21h.22c.08.01.11-.03.11-.11V.99s-.02-.04-.06-.03h-.24s0-.2,0-.2h1.17l1.19,2.47,1.12-2.47h1.06v.21h-.18s-.01-.01-.01-.01c-.03,0-.05.01-.07.03-.02.02-.03.05-.03.08v2.75c0,.09.04.13.11.12h.2Z"/></svg>