<?xml version="1.0" encoding="UTF-8"?><svg id="a" xmlns="http://www.w3.org/2000/svg" viewBox="0 0 88.84 4.59"><defs><style>.b{fill:#fff;}</style></defs><path class="b" d="m1.81,1.29s.04.09.04.19-.01.15-.04.19c-.03.03-.08.05-.16.05-.04,0-.08-.02-.1-.05-.02-.03-.05-.06-.08-.07-.03-.02-.08-.03-.16-.03-.06,0-.12.01-.17.04,0,.05.03.1.06.16.04.06.07.1.1.12.03.02.06.03.11.03.04,0,.07.03.09.06.03.06.04.1.04.13,0,.06-.05.11-.14.17-.07.04-.12.06-.16.06-.05,0-.1-.04-.15-.12-.01-.02-.02-.04-.02-.06,0-.01,0-.03.02-.06.01-.03.02-.05.02-.07,0-.04-.02-.1-.06-.17-.02-.04-.06-.08-.11-.13-.05.05-.09.09-.11.13-.04.07-.06.13-.06.17,0,.02,0,.05.02.07,0,.03.02.05.02.06,0,.02,0,.04-.02.06-.05.08-.1.12-.15.12-.04,0-.09-.02-.16-.06-.1-.05-.15-.11-.15-.17,0-.03.01-.07.04-.13.02-.04.05-.06.09-.06.04,0,.07-.01.1-.03.03-.01.06-.06.11-.13.03-.05.05-.11.06-.17-.05-.02-.11-.03-.17-.03-.07,0-.13,0-.16.03s-.06.04-.08.07c-.02.03-.06.05-.11.05-.08,0-.13-.02-.16-.05-.03-.03-.04-.1-.04-.19s.01-.15.04-.19c.03-.03.08-.05.16-.05.05,0,.08.02.1.05.02.03.05.06.08.08.03.02.08.03.16.03.06,0,.12-.01.17-.04,0-.05-.03-.1-.06-.16-.04-.06-.07-.1-.1-.12-.03-.02-.06-.03-.11-.03-.04,0-.07-.02-.09-.06-.03-.06-.04-.1-.04-.13,0-.06.05-.11.15-.17.06-.04.11-.06.16-.06.05,0,.1.04.15.12.01.03.02.05.02.06,0,.01,0,.03-.02.06-.01.03-.02.05-.02.07,0,.04.02.1.06.17.02.04.06.08.11.13.05-.04.09-.09.11-.13.04-.07.06-.13.06-.17,0-.02,0-.04-.02-.07-.01-.03-.02-.05-.02-.06,0-.02,0-.04.02-.06.05-.08.1-.12.15-.12.04,0,.09.02.16.06.1.05.15.11.15.17,0,.03-.01.07-.04.13-.02.04-.05.06-.09.06-.04,0-.07.01-.1.03-.03.01-.06.06-.11.13-.03.05-.05.11-.06.17.05.02.11.03.17.03.07,0,.13,0,.16-.02.03-.02.06-.04.08-.07.03-.03.06-.05.11-.05.08,0,.13.02.16.05Z"/><path class="b" d="m2.75,1.28c.33-.34.79-.51,1.37-.51.15,0,.28.01.38.04.1.02.23.06.38.11.1.04.19.07.27.09.08.02.16.03.26.03-.02.13-.03.28-.03.46,0,.09,0,.17,0,.23,0,.07,0,.11.02.12h-.15c-.04-.17-.11-.32-.23-.46s-.26-.25-.42-.34c-.17-.08-.34-.12-.52-.12-.24,0-.46.07-.64.22s-.32.35-.42.62c-.1.27-.15.58-.15.94,0,.33.05.63.15.9s.25.47.43.61c.19.14.4.22.65.22.29,0,.54-.09.76-.26.22-.18.36-.4.42-.67h.17c-.03.19-.04.37-.04.53,0,.12,0,.22.02.29h-.04c-.06,0-.13,0-.21.03-.08.02-.14.04-.19.05s-.08.03-.1.03c-.16.05-.3.09-.43.12s-.26.04-.4.04c-.37,0-.7-.08-.97-.23-.28-.15-.49-.37-.64-.65-.15-.28-.22-.62-.22-1.01,0-.61.17-1.08.49-1.42Z"/><path class="b" d="m6.27,2.22c.21-.24.52-.36.93-.36s.72.12.93.36.32.57.32,1-.11.77-.32,1.01-.52.36-.93.36-.72-.12-.93-.36-.32-.58-.32-1.01.11-.75.32-1Zm.41,1.92c.11.19.28.28.52.28s.42-.09.52-.28.16-.49.16-.91-.05-.73-.16-.92-.28-.29-.52-.29-.42.09-.52.29-.16.5-.16.92.05.72.16.91Z"/><path class="b" d="m11.8,4.37v.16h-1.21v-.16h.29c.05,0,.08-.04.08-.11v-1.41c0-.2,0-.35-.03-.46-.02-.11-.06-.19-.12-.25s-.15-.09-.27-.09c-.24,0-.43.1-.57.3-.15.2-.23.47-.24.81v1.09c0,.08.03.12.08.12h.29s0,.15,0,.15h-1.21v-.16h.23c.05,0,.08-.04.08-.11v-2.07c0-.07-.03-.11-.08-.12h-.23s0-.15,0-.15h.87c-.02.06-.03.13-.03.22v.34c.09-.19.21-.35.37-.46.16-.11.35-.16.56-.16.29,0,.5.07.64.21.13.14.2.36.2.67v1.52c0,.08.03.12.08.12h.23Z"/><path class="b" d="m12.44,2.21c.2-.23.49-.35.88-.35.19,0,.35.05.47.14.12.1.2.22.25.37V.27c0-.08-.03-.12-.08-.12h-.29s0-.14,0-.14h.91v4.26c0,.08.03.12.08.12h.23s0,.15,0,.15h-.89s.01-.07.01-.1v-.14c0-.05,0-.1,0-.12,0-.03,0-.05,0-.06-.05.15-.13.27-.24.35-.11.08-.26.12-.45.12-.42,0-.72-.11-.91-.33-.18-.22-.27-.56-.27-1.03s.1-.79.29-1.02Zm.33,1.73c.04.17.1.29.18.37.09.08.21.12.37.12.25,0,.43-.08.54-.25s.16-.43.16-.79v-.26c0-.35-.06-.62-.17-.81-.12-.19-.29-.29-.53-.29s-.38.1-.47.31c-.09.21-.13.5-.13.89,0,.3.02.54.05.71Z"/><path class="b" d="m16.06,4.26c0,.08.03.12.08.12h.22s0,.15,0,.15h-1.15v-.16h.23c.05.01.08-.03.08-.11v-2.07c0-.07-.03-.11-.07-.12h-.23s0-.15,0-.15h.84v2.34Zm-.07-3.64c.06.05.1.12.1.21,0,.1-.03.17-.09.22-.06.05-.15.08-.25.08s-.18-.03-.24-.08c-.06-.05-.09-.12-.09-.22,0-.09.03-.16.09-.21.06-.05.14-.08.24-.08s.18.03.25.08Z"/><path class="b" d="m17.64,1.92h.68v.15h-.68v1.91c0,.16.02.26.06.32s.1.08.2.08c.06,0,.13-.02.19-.07.07-.05.11-.11.13-.18l.13.08c-.08.23-.3.35-.66.35-.21,0-.36-.05-.45-.15-.09-.1-.13-.26-.13-.48v-1.86h-.37v-.15c.17,0,.29-.02.38-.05s.16-.09.21-.18.1-.22.15-.41h.17v.63Z"/><path class="b" d="m19.59,4.26c0,.08.03.12.08.12h.22s0,.15,0,.15h-1.15v-.16h.23c.05.01.08-.03.08-.11v-2.07c0-.07-.02-.11-.07-.12h-.23s0-.15,0-.15h.84v2.34Zm-.07-3.64c.06.05.1.12.1.21,0,.1-.03.17-.09.22-.06.05-.14.08-.25.08s-.18-.03-.24-.08c-.06-.05-.09-.12-.09-.22,0-.09.03-.16.09-.21.06-.05.14-.08.24-.08s.18.03.25.08Z"/><path class="b" d="m20.64,2.22c.21-.24.52-.36.93-.36s.72.12.93.36.32.57.32,1-.11.77-.32,1.01-.52.36-.93.36-.72-.12-.93-.36-.32-.58-.32-1.01.11-.75.32-1Zm.41,1.92c.11.19.28.28.52.28s.42-.09.52-.28.16-.49.16-.91-.05-.73-.16-.92-.28-.29-.52-.29-.42.09-.52.29-.16.5-.16.92.05.72.16.91Z"/><path class="b" d="m26.17,4.37v.16h-1.21v-.16h.29c.05,0,.08-.04.08-.11v-1.41c0-.2,0-.35-.03-.46-.02-.11-.06-.19-.12-.25-.06-.06-.15-.09-.27-.09-.24,0-.43.1-.57.3-.15.2-.23.47-.24.81v1.09c0,.08.03.12.08.12h.29s0,.15,0,.15h-1.21v-.16h.23c.05,0,.08-.04.08-.11v-2.07c0-.07-.03-.11-.08-.12h-.23s0-.15,0-.15h.88c-.02.06-.03.13-.03.22v.34c.09-.19.21-.35.37-.46.16-.11.35-.16.56-.16.29,0,.51.07.64.21.13.14.2.36.2.67v1.52c0,.08.03.12.08.12h.23Z"/><path class="b" d="m26.6,3.65h.16c0,.14.04.28.12.4.08.12.19.21.33.28.14.07.29.1.45.1s.29-.04.38-.13.14-.2.14-.34c0-.12-.03-.21-.1-.29s-.18-.13-.33-.18l-.6-.17c-.17-.05-.3-.13-.39-.25-.1-.12-.14-.26-.14-.44,0-.23.08-.41.25-.56s.4-.21.7-.21c.08,0,.16,0,.22.02s.14.03.24.06c.13.04.22.06.29.06s.12-.02.17-.05l-.04.71h-.14c0-.17-.07-.31-.2-.44-.13-.13-.31-.19-.53-.19-.16,0-.28.04-.37.12-.09.08-.13.19-.13.32,0,.2.13.34.38.41l.6.17c.21.06.36.14.45.26.09.11.13.26.13.44,0,.27-.1.48-.29.62-.19.15-.44.22-.75.22-.09,0-.18,0-.27-.03-.09-.02-.24-.05-.42-.11-.06-.02-.12-.03-.17-.03-.08,0-.14.01-.18.04l.03-.82Z"/><path class="b" d="m30.72,2.21c.2-.23.49-.35.88-.35.19,0,.35.05.47.14.12.1.2.22.25.37V.27c0-.08-.03-.12-.08-.12h-.29s0-.14,0-.14h.91v4.26c0,.08.03.12.08.12h.23s0,.15,0,.15h-.89s.01-.07.01-.1v-.14c0-.05,0-.1,0-.12,0-.03,0-.05,0-.06-.05.15-.13.27-.24.35-.11.08-.26.12-.45.12-.42,0-.72-.11-.91-.33-.18-.22-.27-.56-.27-1.03s.1-.79.29-1.02Zm.33,1.73c.04.17.1.29.18.37.09.08.21.12.37.12.25,0,.43-.08.54-.25s.16-.43.16-.79v-.26c0-.35-.06-.62-.17-.81-.12-.19-.29-.29-.53-.29-.22,0-.38.1-.47.31-.09.21-.13.5-.13.89,0,.3.02.54.05.71Z"/><path class="b" d="m35.54,2.17c.2.21.3.5.31.86v.18h-1.79c0,.38.06.67.2.87.13.2.33.3.59.31.21,0,.38-.05.52-.16s.25-.23.31-.38l.14.11c-.08.2-.22.35-.42.47-.2.11-.41.17-.65.17-.84,0-1.26-.45-1.26-1.36,0-.45.11-.79.32-1.02s.52-.35.93-.35c.33,0,.59.1.79.31Zm-1.3.14c-.11.19-.16.44-.16.74h1.13s.07-.01.09-.04c.02-.03.03-.08.03-.16,0-.28-.04-.49-.13-.62-.09-.13-.24-.2-.44-.2-.23,0-.4.09-.51.29Z"/><path class="b" d="m40.13,1.92v.16h-.21c-.07-.01-.12.02-.14.08l-.98,2.4h-.17l-.96-2.41s-.02-.04-.05-.06c-.02-.02-.05-.03-.08-.03h-.2s0-.15,0-.15h1.26v.16h-.27s-.05,0-.08.02c-.02.03-.03.05-.01.09l.68,1.64.66-1.66s.01-.03.01-.05c0-.04-.02-.05-.06-.05h-.27s0-.15,0-.15h.88Z"/><path class="b" d="m42.27,2.17c.2.21.3.5.31.86v.18h-1.79c0,.38.06.67.2.87.13.2.33.3.59.31.21,0,.38-.05.52-.16s.25-.23.31-.38l.14.11c-.08.2-.22.35-.42.47-.2.11-.41.17-.65.17-.84,0-1.26-.45-1.26-1.36,0-.45.11-.79.32-1.02s.52-.35.93-.35c.33,0,.59.1.79.31Zm-1.3.14c-.11.19-.16.44-.16.74h1.13s.07-.01.09-.04c.02-.03.03-.08.03-.16,0-.28-.04-.49-.13-.62-.09-.13-.24-.2-.44-.2-.23,0-.4.09-.51.29Z"/><path class="b" d="m45.94,4.37v.16h-1.21v-.16h.29c.05,0,.08-.04.08-.11v-1.41c0-.2,0-.35-.03-.46-.02-.11-.06-.19-.12-.25-.06-.06-.15-.09-.27-.09-.24,0-.43.1-.57.3-.15.2-.23.47-.24.81v1.09c0,.08.03.12.08.12h.29s0,.15,0,.15h-1.21v-.16h.23c.05,0,.08-.04.08-.11v-2.07c0-.07-.03-.11-.08-.12h-.23s0-.15,0-.15h.88c-.02.06-.03.13-.03.22v.34c.09-.19.21-.35.37-.46.16-.11.35-.16.56-.16.29,0,.5.07.64.21s.2.36.2.67v1.52c0,.08.03.12.08.12h.23Z"/><path class="b" d="m47.12,1.92h.68v.15h-.68v1.91c0,.16.02.26.06.32.04.06.1.08.2.08.06,0,.13-.02.19-.07s.11-.11.13-.18l.13.08c-.08.23-.3.35-.66.35-.21,0-.36-.05-.45-.15-.09-.1-.13-.26-.13-.48v-1.86h-.37v-.15c.17,0,.29-.02.38-.05s.16-.09.21-.18.1-.22.15-.41h.17v.63Z"/><path class="b" d="m50.26,2.17c.2.21.31.5.31.86v.18h-1.79c0,.38.06.67.2.87.13.2.33.3.59.31.21,0,.38-.05.52-.16s.25-.23.31-.38l.14.11c-.08.2-.22.35-.42.47-.2.11-.41.17-.65.17-.84,0-1.26-.45-1.26-1.36,0-.45.11-.79.32-1.02s.52-.35.93-.35c.33,0,.59.1.79.31Zm-1.3.14c-.11.19-.16.44-.16.74h1.13s.07-.01.09-.04c.02-.03.03-.08.03-.16,0-.28-.04-.49-.13-.62-.09-.13-.24-.2-.44-.2-.23,0-.4.09-.51.29Z"/><path class="b" d="m51.09,3.65h.16c0,.14.04.28.12.4.08.12.19.21.33.28.14.07.29.1.45.1s.29-.04.38-.13c.09-.08.14-.2.14-.34,0-.12-.03-.21-.1-.29-.07-.07-.18-.13-.33-.18l-.6-.17c-.17-.05-.3-.13-.39-.25-.09-.12-.14-.26-.14-.44,0-.23.08-.41.25-.56.17-.14.4-.21.69-.21.08,0,.16,0,.22.02s.14.03.24.06c.13.04.22.06.29.06s.12-.02.17-.05l-.04.71h-.14c0-.17-.07-.31-.2-.44-.13-.13-.31-.19-.53-.19-.16,0-.28.04-.37.12-.09.08-.13.19-.13.32,0,.2.13.34.38.41l.6.17c.21.06.36.14.45.26.09.11.13.26.13.44,0,.27-.1.48-.29.62s-.44.22-.74.22c-.09,0-.18,0-.27-.03-.09-.02-.24-.05-.43-.11-.06-.02-.12-.03-.17-.03-.08,0-.14.01-.18.04l.03-.82Z"/><path class="b" d="m55.01,3.65h.16c0,.14.04.28.12.4.08.12.19.21.33.28.14.07.29.1.45.1s.29-.04.38-.13c.09-.08.14-.2.14-.34,0-.12-.03-.21-.1-.29-.07-.07-.18-.13-.33-.18l-.6-.17c-.17-.05-.3-.13-.39-.25-.09-.12-.14-.26-.14-.44,0-.23.08-.41.25-.56.17-.14.4-.21.69-.21.08,0,.16,0,.22.02s.14.03.24.06c.13.04.22.06.29.06s.12-.02.17-.05l-.04.71h-.14c0-.17-.07-.31-.2-.44-.13-.13-.31-.19-.53-.19-.16,0-.28.04-.37.12-.09.08-.13.19-.13.32,0,.2.13.34.38.41l.6.17c.21.06.36.14.45.26.09.11.13.26.13.44,0,.27-.1.48-.29.62s-.44.22-.74.22c-.09,0-.18,0-.27-.03-.09-.02-.24-.05-.43-.11-.06-.02-.12-.03-.17-.03-.08,0-.14.01-.18.04l.03-.82Z"/><path class="b" d="m60.29,4.37v.16h-.88s.03-.2.03-.45v-.08c-.08.19-.21.34-.38.44s-.37.15-.6.15c-.28,0-.48-.08-.6-.23-.12-.15-.18-.4-.18-.75v-1.42c0-.08-.03-.12-.08-.12h-.22s0-.15,0-.15h.84v1.69c0,.28.02.48.07.6s.15.18.3.18c.24,0,.43-.09.58-.27.15-.18.24-.43.26-.74v-1.17c0-.09-.02-.13-.07-.13h-.29s0-.15,0-.15h.91v2.34c0,.08.03.12.08.12h.22Z"/><path class="b" d="m62.66,2c.09.09.13.21.13.35,0,.09-.02.17-.07.22-.05.05-.11.07-.19.07-.06,0-.11-.02-.16-.05-.05-.03-.07-.08-.07-.15,0-.04,0-.08.03-.14.02-.06.02-.1.02-.14s-.01-.06-.03-.09c-.02-.03-.06-.04-.11-.04-.13,0-.24.06-.33.18-.09.12-.17.27-.22.45s-.08.35-.09.52v1.07c0,.08.03.12.08.12h.38s0,.15,0,.15h-1.27v-.16h.2c.05.01.08-.03.08-.11v-2.07c0-.08-.03-.12-.08-.12h-.22s0-.15,0-.15h.88s-.02.06-.02.12c0,.06-.01.11-.01.16v.3c.09-.23.2-.4.32-.5.12-.1.25-.15.41-.15.16,0,.29.05.38.14Z"/><path class="b" d="m68.1,4.35v.18h-1.64v-.18h.3c.12.02.19-.03.19-.14,0-.07-.02-.15-.06-.24l-.3-.73h-1.45l-.29.69c-.06.13-.09.23-.09.31,0,.09.05.13.14.12l.3-.02v.18h-1.07v-.18h.16s.03.01.03.01c.08,0,.15-.04.2-.12.06-.09.12-.21.19-.36l1.3-3.12h.16l1.31,3.13c.06.15.12.27.18.35.06.07.13.11.22.11h.24Zm-2.89-1.28h1.3l-.65-1.56-.64,1.56Z"/><path class="b" d="m68.28,4.34l.27.02c.06,0,.09-.04.09-.14V1.13s-.01-.07-.03-.1-.05-.04-.08-.03h-.24s0-.17,0-.17h1.36v.19h-.3s-.01-.01-.01-.01c-.03,0-.06.01-.08.04-.02.03-.03.06-.03.09v3.15c0,.05.02.08.07.08h.7c.29,0,.5-.08.65-.23.15-.15.22-.37.22-.66h.16v1.08c-.07-.01-.33-.02-.77-.02h-1.97v-.19Z"/><path class="b" d="m71.47,4.34l.27.02c.06,0,.09-.04.09-.14V1.13s-.01-.07-.03-.1-.05-.04-.08-.03h-.24s0-.17,0-.17h1.36v.19h-.3s-.01-.01-.01-.01c-.03,0-.06.01-.08.04-.02.03-.03.06-.03.09v3.15c0,.05.02.08.07.08h.7c.29,0,.5-.08.65-.23.15-.15.22-.37.22-.66h.16v1.08c-.07-.01-.33-.02-.77-.02h-1.97v-.19Z"/><path class="b" d="m74.84,3.98c.08-.07.17-.1.29-.1s.21.03.29.1c.08.07.11.15.11.26s-.04.19-.11.26c-.08.06-.17.1-.29.1s-.21-.03-.29-.1c-.08-.06-.12-.15-.12-.26s.04-.19.12-.26Z"/><path class="b" d="m76.67,1.28c.33-.34.79-.51,1.37-.51.15,0,.28.01.38.04.1.02.23.06.38.11.1.04.19.07.27.09.08.02.17.03.26.03-.02.13-.02.28-.02.46,0,.09,0,.17,0,.23,0,.07.01.11.02.12h-.15c-.04-.17-.11-.32-.23-.46-.12-.14-.26-.25-.42-.34-.17-.08-.34-.12-.52-.12-.24,0-.46.07-.64.22s-.32.35-.42.62c-.1.27-.15.58-.15.94,0,.33.05.63.15.9.1.26.25.47.43.61.19.14.4.22.65.22.29,0,.54-.09.76-.26.22-.18.36-.4.42-.67h.17c-.03.19-.04.37-.04.53,0,.12,0,.22.02.29h-.04c-.06,0-.13,0-.2.03-.08.02-.14.04-.19.05s-.08.03-.1.03c-.16.05-.3.09-.43.12-.13.03-.26.04-.4.04-.37,0-.7-.08-.97-.23-.28-.15-.49-.37-.64-.65-.15-.28-.22-.62-.22-1.01,0-.61.16-1.08.49-1.42Z"/><path class="b" d="m80.42,1.26c.32-.33.76-.49,1.32-.49s1.02.17,1.33.5.47.8.47,1.41-.16,1.08-.47,1.42-.76.5-1.33.5-1.01-.17-1.32-.5-.47-.81-.47-1.42.16-1.09.47-1.42Zm.44,2.76c.19.27.48.41.88.41s.7-.14.88-.41c.19-.27.28-.72.28-1.34s-.09-1.06-.28-1.33c-.19-.27-.48-.41-.88-.41s-.7.14-.88.41c-.19.27-.28.72-.28,1.33s.09,1.07.28,1.34Z"/><path class="b" d="m88.84,4.35v.18h-1.36v-.18h.3c.08.01.12-.03.12-.12V1.31l-1.48,3.28h-.15l-1.59-3.33v2.97c0,.09.04.14.12.14h.3s0,.17,0,.17h-1v-.18h.24c.08.01.12-.03.12-.12V1.04s-.02-.04-.06-.04h-.26s0-.17,0-.17h.96l1.45,3,1.36-3h.9v.19h-.21s-.01-.01-.01-.01c-.03,0-.06.01-.08.04-.02.03-.03.05-.03.09v3.1c0,.09.04.14.12.14h.24Z"/></svg>