<?xml version="1.0" encoding="UTF-8"?><svg id="a" xmlns="http://www.w3.org/2000/svg" viewBox="0 0 510.6 258.84"><defs><style>.b{fill:#fff;}</style></defs><path class="b" d="m336.32,254.97h-36.89c-15.55,0-23.37-3.42-29.07-10.86-6.07-7.93-6.07-20.01-6.07-31.46V.17h47.43v219.3c0,17.36,1.95,29.78,24.61,34.73v.77h0Z"/><path class="b" d="m240.39,254.93h-59.36l-43.63-90.93c-23.81,12.95-37.4,42.93-61.55,62.73-12.31,10.09-26.71,19.09-44.66,25.18-8.12,2.75-21.93,6.32-27.12,6.83-2.17.22-3.7.13-4.02-.66-.25-.61.35-1.07,2.66-2.19,2.64-1.27,13.54-5.79,20.37-10.55,8.53-5.94,13.41-12.37,13.79-17.33-2.35-8.26-19.04-26.6-1.96-60.26,6.13-12.08,11.43-20.77,15.22-29.5,4.36-10.03,7.45-24.17,8.5-34.67.06-.61.17-.58.51-.24,8.32,8.41,40.55,41.59,35.89,74.58,10.72-4.12,29.31-16.62,37.88-23.29,9.05-7.04,14.94-14.39,24.53-14.55,8.58-.15,9.32,3.96,16.16,4.86,1.69.22,4.2-.11,5.49-.74.53-.26.4-.83-.4-1.02-9.32-2.2-11.55-9.79-23.6-9.79-10.81,0-19.41,9.95-25.64,14.04l-30.48-63.52C86.22,57.34,90.11,38.04,118.09.06l122.3,254.87Z"/><path class="b" d="m431.86,254.97h-36.89c-15.55,0-23.37-3.42-29.07-10.86-6.07-7.93-6.07-20.01-6.07-31.46V.17h47.43v219.3c0,17.36,1.95,29.78,24.61,34.73v.77h0Z"/><path class="b" d="m506.98,171.22c-2.4,4.47-5.73,7.98-10,10.54-4.26,2.56-9.08,3.84-14.45,3.84s-10.19-1.28-14.45-3.84c-4.26-2.56-7.59-6.07-10-10.54-2.4-4.47-3.6-9.49-3.6-15.07,0-4.7.83-8.95,2.48-12.75,1.65-3.8,4.03-6.99,7.13-9.57l7.44,8.06c-4.24,3.67-6.35,8.21-6.35,13.64,0,3.36.74,6.35,2.21,8.99,1.47,2.64,3.53,4.69,6.16,6.16,2.64,1.47,5.63,2.21,8.99,2.21s6.35-.74,8.99-2.21c2.64-1.47,4.69-3.53,6.16-6.16,1.47-2.63,2.21-5.63,2.21-8.99,0-5.42-2.14-9.97-6.43-13.64l7.44-8.06c3.15,2.58,5.55,5.79,7.21,9.61,1.65,3.82,2.48,8.09,2.48,12.79-.02,5.52-1.22,10.52-3.62,14.99"/><path class="b" d="m506.94,115.5c-2.43,4.52-5.77,8.06-10.04,10.62-4.26,2.56-9.05,3.84-14.38,3.84s-10.11-1.28-14.37-3.84c-4.26-2.56-7.61-6.1-10.04-10.62-2.43-4.52-3.64-9.6-3.64-15.23s1.21-10.69,3.64-15.19c2.43-4.49,5.77-8.03,10.04-10.62,4.26-2.58,9.06-3.87,14.37-3.87s10.11,1.29,14.38,3.87c4.26,2.58,7.61,6.12,10.04,10.62,2.43,4.49,3.64,9.56,3.64,15.19s-1.21,10.71-3.64,15.23m-9.26-23.9c-1.47-2.58-3.53-4.61-6.16-6.08-2.63-1.47-5.63-2.21-8.99-2.21s-6.35.74-8.99,2.21c-2.63,1.47-4.69,3.5-6.16,6.08-1.47,2.58-2.21,5.48-2.21,8.68s.74,6.1,2.21,8.68,3.53,4.61,6.16,6.08c2.64,1.47,5.63,2.21,8.99,2.21s6.35-.74,8.99-2.21c2.64-1.47,4.69-3.5,6.16-6.08,1.47-2.58,2.21-5.48,2.21-8.68s-.74-6.1-2.21-8.68"/><polygon class="b" points="509.65 11.78 477.1 11.86 503.91 27.82 503.91 33.48 477.79 49.37 509.64 49.37 509.64 61.15 455.4 61.15 455.4 50.76 489.11 30.46 455.4 10.47 455.4 .16 509.64 0 509.64 11.78 509.65 11.78"/><path class="b" d="m455.63,193.45c6.86,0,12.43,5.57,12.43,12.43s-5.57,12.43-12.43,12.43-12.43-5.57-12.43-12.43,5.57-12.43,12.43-12.43"/></svg>