<?xml version="1.0" encoding="UTF-8"?><svg id="a" xmlns="http://www.w3.org/2000/svg" viewBox="0 0 93.62 19.76"><defs><style>.b{fill:#fff;}</style></defs><path class="b" d="m4.47,1.78c.3.24.45.61.45,1.09,0,.36-.13.66-.38.91s-.59.41-1.02.48c.32,0,.61.07.87.2.26.13.47.32.63.56.16.24.23.51.23.81,0,1.1-.75,1.64-2.24,1.64H0v-.38l.49.02c.11,0,.16-.07.16-.22V1.97s-.02-.09-.05-.14-.07-.07-.13-.07l-.48.02v-.38h3.16c.58,0,1.01.12,1.31.37Zm-2.29,0c-.07,0-.11.04-.12.12v2.24h.53c.31,0,.54-.1.69-.29.15-.19.22-.5.22-.93,0-.76-.31-1.15-.93-1.15h-.39Zm-.12,2.72v2.49c0,.09.05.13.14.13h.5c.34,0,.62-.11.82-.33.2-.22.3-.54.3-.97,0-.46-.08-.79-.24-1-.16-.21-.41-.31-.74-.31h-.77Z"/><path class="b" d="m9.49,3.56c.37.34.56.81.56,1.43v.38h-2.92c0,.58.11,1.03.32,1.33s.53.46.96.47c.32,0,.59-.08.82-.24.23-.16.4-.35.51-.58l.27.19c-.16.33-.4.59-.75.77-.34.18-.75.27-1.23.27-.81,0-1.39-.18-1.77-.55s-.56-.93-.56-1.7.19-1.35.58-1.72c.39-.37.96-.55,1.73-.55.62,0,1.11.17,1.48.5Zm-2.15.29c-.14.3-.2.69-.2,1.17h1.35c.07,0,.12-.02.15-.07.03-.05.05-.14.05-.26,0-.44-.06-.76-.17-.97s-.29-.32-.54-.32c-.29,0-.5.15-.64.45Zm2-2.5l-1.7,1.04c-.09.06-.17.09-.24.09s-.11-.03-.11-.1.05-.16.16-.27l.96-1.06c.1-.11.17-.19.21-.21s.09-.04.16-.04c.12,0,.27.04.44.14.17.09.25.17.25.24,0,.05-.04.12-.13.18Z"/><path class="b" d="m15.61,7.13v.34h-2.31v-.34l.39.02c.09-.02.13-.08.13-.19v-2.46c0-.35-.03-.6-.09-.75-.06-.15-.19-.22-.39-.22-.18,0-.35.08-.51.22-.17.15-.3.37-.41.66s-.16.64-.16,1.05v1.49c0,.13.04.19.13.19l.4-.02v.34h-2.32v-.34l.33.02c.09-.02.13-.08.13-.19v-3.28c0-.12-.04-.18-.13-.2l-.33.02v-.33h1.85c-.03.1-.05.22-.05.36v.57c.15-.33.36-.58.62-.76.27-.18.58-.27.95-.27.46,0,.8.12,1,.35.21.23.32.6.32,1.1v2.45c0,.13.04.19.13.19l.33-.02Z"/><path class="b" d="m19.71,3.56c.37.34.56.81.56,1.43v.38h-2.92c0,.58.11,1.03.32,1.33s.53.46.96.47c.32,0,.59-.08.82-.24.23-.16.4-.35.51-.58l.27.19c-.16.33-.4.59-.75.77-.34.18-.75.27-1.23.27-.81,0-1.39-.18-1.77-.55s-.56-.93-.56-1.7.19-1.35.58-1.72c.39-.37.96-.55,1.73-.55.62,0,1.11.17,1.48.5Zm-2.15.29c-.14.3-.2.69-.2,1.17h1.35c.07,0,.12-.02.15-.07.03-.05.05-.14.05-.26,0-.44-.06-.76-.17-.97s-.29-.32-.54-.32c-.29,0-.5.15-.64.45Zm2-2.5l-1.7,1.04c-.09.06-.17.09-.24.09s-.11-.03-.11-.1.05-.16.16-.27l.96-1.06c.1-.11.17-.19.21-.21s.09-.04.16-.04c.12,0,.27.04.44.14.17.09.25.17.25.24,0,.05-.04.12-.13.18Z"/><path class="b" d="m20.68,7.13l.38.02c.09,0,.13-.06.13-.19v-3.42h-.4v-.32h.4v-1.21c0-.54.1-1.01.31-1.41.21-.4.59-.59,1.15-.59.34,0,.62.08.84.24s.33.38.33.66c0,.16-.05.29-.15.4-.1.11-.25.17-.45.17-.14,0-.25-.03-.36-.1s-.15-.16-.15-.28c0-.05.01-.14.04-.24.02-.14.03-.22.03-.23,0-.07-.02-.13-.06-.18-.04-.05-.09-.08-.17-.08-.24,0-.36.26-.36.78,0,.09.01.19.04.3.02.11.05.21.09.31.05.18.1.34.13.49s.05.33.05.52v.46h.92v.32h-.91v3.42c0,.13.04.19.13.19l.71-.02v.34h-2.68v-.34Zm4.94-.17c0,.14.04.2.13.19l.33-.02v.34h-2.26v-.34l.33.02h.02c.07,0,.11-.06.11-.19v-3.28c0-.12-.04-.18-.12-.2l-.33.02v-.33h1.79v3.8Zm-.13-5.98c.15.12.22.27.22.46s-.07.35-.22.47-.33.17-.56.17-.42-.06-.56-.17-.22-.27-.22-.47.07-.34.22-.46.33-.17.56-.17.42.06.56.17Z"/><path class="b" d="m29.69,3.2c.27.1.48.22.63.39.15.16.23.34.23.54,0,.18-.06.33-.17.45-.11.12-.27.18-.47.18-.16,0-.3-.04-.4-.12-.1-.08-.16-.19-.16-.34,0-.06.01-.13.04-.21.03-.07.05-.14.05-.22,0-.15-.06-.26-.18-.34-.12-.08-.27-.12-.44-.12-.29,0-.52.14-.68.41-.16.27-.24.74-.24,1.4,0,.73.1,1.25.3,1.54s.48.45.83.45c.28,0,.53-.08.76-.23s.4-.4.52-.75l.32.15c-.29.8-.9,1.2-1.84,1.2-.66,0-1.21-.18-1.64-.55s-.64-.92-.64-1.68.21-1.32.63-1.71c.42-.39.97-.58,1.64-.58.34,0,.64.05.91.14Z"/><path class="b" d="m32.75,6.95c0,.14.04.2.13.19l.34-.02v.34h-2.26v-.34l.33.02h.02c.07,0,.11-.06.11-.19v-3.28c0-.12-.04-.18-.12-.2l-.33.02v-.33h1.79v3.8Zm-.13-5.98c.15.12.22.27.22.46s-.07.35-.22.47-.33.17-.56.17-.42-.06-.56-.17-.22-.27-.22-.47.07-.34.22-.46.33-.17.56-.17.42.06.56.17Z"/><path class="b" d="m37.41,3.56c.37.34.56.81.56,1.43v.38h-2.92c0,.58.11,1.03.32,1.33s.53.46.96.47c.32,0,.59-.08.82-.24.23-.16.4-.35.51-.58l.27.19c-.16.33-.4.59-.75.77-.34.18-.75.27-1.23.27-.81,0-1.39-.18-1.77-.55s-.56-.93-.56-1.7.19-1.35.58-1.72c.39-.37.96-.55,1.73-.55.62,0,1.11.17,1.48.5Zm-2.15.29c-.14.3-.2.69-.2,1.17h1.35c.07,0,.12-.02.15-.07.03-.05.05-.14.05-.26,0-.44-.06-.76-.17-.97s-.29-.32-.54-.32c-.29,0-.5.15-.64.45Z"/><path class="b" d="m42.29,6.06v1.41h-3.57c-.06.02-.13.02-.2.02v-.28l2.15-3.73h-.61c-.32,0-.57.09-.77.28-.19.19-.32.46-.37.81h-.28l.09-1.44s.12,0,.3,0c.18,0,.4.01.68.01h2.52v.26l-2.1,3.72h.57c.43,0,.75-.09.97-.27.22-.18.33-.45.33-.81h.29Z"/><path class="b" d="m45.46,3.63c.31-.38.76-.57,1.37-.57.31,0,.58.08.81.23s.38.34.45.56V.57c0-.14-.04-.2-.13-.2l-.47.02V.06h1.93v6.89c0,.13.04.19.13.19l.33-.02v.34h-1.87c.01-.05.02-.11.02-.16v-.22c0-.07,0-.13,0-.17,0-.04.01-.07.01-.08-.09.23-.23.41-.44.54s-.46.2-.78.2c-.66,0-1.13-.18-1.41-.55s-.43-.93-.43-1.7.15-1.32.46-1.7Zm1.03,2.76c.04.25.12.43.23.55s.26.17.46.17c.3,0,.53-.13.68-.38.15-.25.22-.63.22-1.14v-.44c0-.51-.08-.92-.23-1.2-.15-.29-.38-.43-.67-.43-.27,0-.46.15-.57.46-.11.31-.17.76-.17,1.36,0,.45.02.81.07,1.06Z"/><path class="b" d="m55.25,7.13v.34h-1.86c.03-.1.05-.25.05-.45v-.46c-.3.67-.82,1-1.54,1-.44,0-.76-.12-.96-.36-.2-.24-.3-.62-.3-1.14v-2.41c0-.13-.04-.19-.13-.19l-.33.02v-.33h1.8v2.97c0,.34.03.59.09.74s.18.22.36.22c.16,0,.32-.07.48-.21.16-.14.29-.35.39-.63.1-.28.16-.62.16-1.01v-1.56c0-.14-.04-.2-.12-.2l-.4.02v-.33h1.86v3.8c0,.12.04.19.13.19l.33-.02Z"/><path class="b" d="m66.12,7.1v.38h-2.66v-.38l.5.02c.13,0,.2-.07.2-.22V2.39l-2.33,5.19h-.33l-2.61-5.45v4.77c0,.15.06.22.19.22l.5-.02v.38h-1.71v-.38l.4.02c.13,0,.2-.07.2-.22V1.83s-.03-.07-.1-.06l-.43.02v-.38h2.09l2.13,4.43,2-4.43h1.9v.38l-.31-.02h-.02c-.05,0-.1.02-.13.06s-.05.09-.05.14v4.92c0,.16.07.24.2.22l.37-.02Z"/><path class="b" d="m70.49,3.56c.37.34.56.81.56,1.43v.38h-2.92c0,.58.11,1.03.32,1.33s.53.46.96.47c.32,0,.59-.08.82-.24.23-.16.4-.35.51-.58l.27.19c-.16.33-.4.59-.75.77-.34.18-.75.27-1.23.27-.81,0-1.39-.18-1.77-.55-.37-.37-.56-.93-.56-1.7s.19-1.35.58-1.72c.39-.37.96-.55,1.73-.55.62,0,1.11.17,1.48.5Zm-2.15.29c-.14.3-.2.69-.2,1.17h1.35c.07,0,.12-.02.15-.07.03-.05.05-.14.05-.26,0-.44-.06-.76-.17-.97s-.29-.32-.54-.32c-.29,0-.5.15-.64.45Z"/><path class="b" d="m73.26,6.95c0,.14.04.2.13.19l.33-.02v.34h-2.26v-.34l.33.02h.02c.07,0,.11-.06.11-.19v-3.28c0-.12-.04-.18-.12-.2l-.33.02v-.33h1.79v3.8Zm-.13-5.98c.15.12.22.27.22.46s-.07.35-.22.47-.33.17-.56.17-.42-.06-.56-.17-.22-.27-.22-.47.07-.34.22-.46.33-.17.56-.17.42.06.56.17Z"/><path class="b" d="m74.13,7.13l.33.02c.09-.02.13-.08.13-.19V.57c0-.12-.04-.19-.12-.21l-.33.02V.05h1.79v6.9c0,.14.04.2.13.19l.33-.02v.34h-2.26v-.34Z"/><path class="b" d="m76.8,7.13l.33.02c.09-.02.13-.08.13-.19V.57c0-.12-.04-.19-.12-.21l-.33.02V.05h1.79v6.9c0,.14.04.2.13.19l.33-.02v.34h-2.26v-.34Z"/><path class="b" d="m83.25,3.56c.37.34.56.81.56,1.43v.38h-2.92c0,.58.11,1.03.32,1.33s.53.46.96.47c.32,0,.59-.08.82-.24.23-.16.4-.35.51-.58l.27.19c-.16.33-.4.59-.75.77-.34.18-.75.27-1.23.27-.81,0-1.39-.18-1.77-.55-.37-.37-.56-.93-.56-1.7s.19-1.35.58-1.72c.39-.37.96-.55,1.73-.55.62,0,1.11.17,1.48.5Zm-2.15.29c-.14.3-.2.69-.2,1.17h1.35c.07,0,.12-.02.15-.07.03-.05.05-.14.05-.26,0-.44-.06-.76-.17-.97s-.29-.32-.54-.32c-.29,0-.5.15-.64.45Z"/><path class="b" d="m89.22,7.13v.34h-1.86c.03-.1.05-.25.05-.45v-.46c-.3.67-.82,1-1.54,1-.44,0-.76-.12-.96-.36-.2-.24-.3-.62-.3-1.14v-2.41c0-.13-.04-.19-.13-.19l-.33.02v-.33h1.8v2.97c0,.34.03.59.09.74s.18.22.36.22c.16,0,.32-.07.48-.21.16-.14.29-.35.39-.63.1-.28.16-.62.16-1.01v-1.56c0-.14-.04-.2-.12-.2l-.4.02v-.33h1.86v3.8c0,.12.04.19.13.19l.33-.02Z"/><path class="b" d="m93.34,3.31c.19.17.28.39.28.66,0,.2-.06.35-.18.46-.12.1-.26.15-.43.15-.14,0-.27-.04-.38-.11s-.17-.17-.17-.31c0-.05.01-.12.04-.21.02-.12.03-.19.03-.2,0-.15-.06-.22-.19-.22-.18,0-.33.1-.47.3-.14.2-.25.45-.32.75-.08.3-.12.58-.12.86v1.52c0,.13.04.19.13.19l.7-.02v.34h-2.58v-.34l.28.02c.09,0,.13-.06.13-.19v-3.28c0-.14-.04-.2-.13-.2l-.33.02v-.33h1.85s-.03.11-.04.2c-.01.09-.02.18-.02.27v.47c.24-.69.64-1.04,1.2-1.04.29,0,.53.08.72.25Z"/><path class="b" d="m20.3,19.28l.36.02h.02c.12,0,.17-.07.17-.22v-4.9c0-.08-.02-.14-.05-.18s-.09-.05-.18-.05l-.31.02v-.38h2.67c.76,0,1.33.14,1.7.42s.55.71.55,1.28-.18,1-.53,1.33-.83.5-1.44.5h-1v1.94c0,.15.07.22.2.22l.5-.02v.38h-2.65v-.38Zm2.51-2.51c.27,0,.5-.14.67-.42.18-.28.27-.63.27-1.06,0-.4-.09-.72-.27-.97-.18-.25-.42-.38-.71-.38h-.41s-.05.01-.08.04c-.03.02-.04.05-.04.09v2.7h.56Z"/><path class="b" d="m29.2,15.49c.19.17.28.39.28.66,0,.2-.06.36-.18.46s-.26.15-.43.15c-.14,0-.27-.04-.38-.11-.11-.07-.17-.17-.17-.31,0-.05.01-.12.04-.21.02-.12.03-.19.03-.2,0-.15-.06-.22-.19-.22-.18,0-.33.1-.47.3-.14.2-.25.45-.32.75s-.12.58-.12.86v1.52c0,.13.04.19.13.19l.7-.02v.34h-2.58v-.34l.28.02c.09,0,.13-.06.13-.19v-3.28c0-.14-.04-.2-.13-.2l-.32.02v-.33h1.85s-.03.11-.04.2c-.01.09-.02.18-.02.27v.47c.24-.69.64-1.04,1.2-1.04.29,0,.53.08.72.25Z"/><path class="b" d="m31.54,19.14c0,.14.04.2.13.19l.34-.02v.34h-2.26v-.34l.33.02h.02c.07,0,.11-.06.11-.19v-3.28c0-.12-.04-.18-.12-.2l-.33.02v-.33h1.79v3.8Zm-.13-5.98c.15.12.22.27.22.46s-.07.35-.22.47c-.15.12-.33.17-.56.17s-.42-.06-.56-.17c-.15-.11-.22-.27-.22-.47s.07-.34.22-.46c.15-.11.33-.17.56-.17s.42.06.56.17Z"/><path class="b" d="m37.41,19.31v.34h-2.74v-.34l.5.03h0s.07-.02.08-.05c0-.03,0-.06-.02-.09l-.95-1.35-.97,1.34-.02.04c0,.07.04.1.13.1l.44-.02v.34h-1.57v-.34l.4.02c.08,0,.15-.04.21-.13l1.18-1.65-1.24-1.76c-.05-.09-.11-.13-.19-.13l-.36.02v-.33h2.67v.33l-.47-.02s-.08.01-.11.04-.02.06.01.1l.93,1.31,1-1.27s.03-.06.03-.09c0-.05-.03-.08-.09-.08l-.44.02v-.33h1.55v.33l-.39-.02s-.08.01-.13.04c-.05.03-.09.06-.13.11l-1.21,1.58,1.28,1.81c.06.09.12.13.19.13l.41-.02Z"/><path class="b" d="m40.73,14.29c.55-.54,1.33-.8,2.35-.8.29,0,.55.03.78.08s.5.12.8.21c.13.04.25.08.37.11s.21.05.29.05c-.03.18-.04.38-.04.61,0,.12.01.39.04.79h-.51s.01-.11.01-.18c-.01-.42-.16-.75-.44-.98-.28-.23-.68-.35-1.19-.35-.56,0-1,.25-1.3.75-.3.5-.46,1.22-.46,2.17,0,1.78.55,2.67,1.66,2.67.21,0,.39-.03.55-.1.16-.06.3-.18.45-.34v-1.5c0-.15-.06-.22-.19-.22l-.6.02v-.37h2.71v.37l-.33-.02c-.06,0-.11.02-.14.06-.03.04-.05.09-.05.15v1.85c-.07-.01-.13-.02-.19-.02-.09,0-.19.01-.28.04s-.22.07-.37.12c-.27.09-.53.17-.78.23-.25.06-.54.09-.87.09-.97,0-1.73-.26-2.27-.79-.55-.53-.82-1.3-.82-2.33s.28-1.81.83-2.34Z"/><path class="b" d="m50.83,19.31v.34h-1.85c.03-.16.04-.29.04-.38v-.27c-.29.47-.76.7-1.39.7-.43,0-.75-.1-.97-.29-.22-.19-.33-.48-.33-.86,0-.49.22-.86.65-1.1.43-.24,1.12-.35,2.05-.35v-.71c0-.26-.04-.46-.13-.6-.09-.14-.27-.21-.55-.21-.24,0-.4.04-.5.12-.1.08-.15.18-.15.29,0,.09.02.17.05.23.03.1.04.16.04.2,0,.15-.05.26-.16.35-.1.08-.24.12-.4.12-.19,0-.34-.06-.46-.17s-.18-.25-.18-.42c0-.33.17-.59.51-.78s.8-.29,1.37-.29c1.26,0,1.89.45,1.89,1.35v2.55c0,.13.04.19.13.19l.33-.02Zm-2.08-.47c.15-.18.25-.41.28-.71v-.67c-.46,0-.79.08-1.01.24-.21.16-.31.41-.31.73,0,.45.17.67.5.67.21,0,.39-.09.54-.27Z"/><path class="b" d="m54.85,15.49c.19.17.28.39.28.66,0,.2-.06.36-.18.46-.12.1-.26.15-.43.15-.14,0-.27-.04-.38-.11s-.17-.17-.17-.31c0-.05.01-.12.04-.21.02-.12.03-.19.03-.2,0-.15-.06-.22-.19-.22-.18,0-.33.1-.47.3-.14.2-.25.45-.32.75-.08.3-.12.58-.12.86v1.52c0,.13.04.19.13.19l.7-.02v.34h-2.58v-.34l.28.02c.09,0,.13-.06.13-.19v-3.28c0-.14-.04-.2-.13-.2l-.33.02v-.33h1.85s-.03.11-.04.2c-.01.09-.02.18-.02.27v.47c.24-.69.64-1.04,1.2-1.04.29,0,.53.08.72.25Z"/><path class="b" d="m59.82,19.31v.34h-1.85c.03-.16.04-.29.04-.38v-.27c-.29.47-.75.7-1.39.7-.43,0-.75-.1-.97-.29-.22-.19-.33-.48-.33-.86,0-.49.22-.86.65-1.1.43-.24,1.12-.35,2.05-.35v-.71c0-.26-.04-.46-.13-.6-.09-.14-.27-.21-.55-.21-.24,0-.4.04-.5.12-.1.08-.15.18-.15.29,0,.09.02.17.05.23.03.1.04.16.04.2,0,.15-.05.26-.16.35s-.24.12-.4.12c-.19,0-.34-.06-.46-.17-.12-.11-.18-.25-.18-.42,0-.33.17-.59.51-.78.34-.2.8-.29,1.37-.29,1.26,0,1.89.45,1.89,1.35v2.55c0,.13.04.19.13.19l.33-.02Zm-2.08-.47c.15-.18.25-.41.28-.71v-.67c-.46,0-.8.08-1.01.24s-.31.41-.31.73c0,.45.17.67.5.67.21,0,.39-.09.54-.27Z"/><path class="b" d="m65.29,19.31v.34h-2.31v-.34l.39.02c.09-.02.13-.08.13-.19v-2.46c0-.35-.03-.6-.09-.75s-.19-.22-.39-.22c-.18,0-.35.08-.51.22-.17.15-.3.37-.41.66s-.16.64-.16,1.05v1.49c0,.13.04.19.13.19l.4-.02v.34h-2.33v-.34l.33.02c.09-.02.13-.08.13-.19v-3.28c0-.12-.04-.18-.13-.2l-.33.02v-.33h1.85c-.03.1-.05.22-.05.35v.57c.15-.33.36-.58.62-.76.27-.18.58-.27.95-.27.46,0,.8.12,1.01.35.21.23.31.6.31,1.1v2.45c0,.13.04.19.13.19l.33-.02Z"/><path class="b" d="m67.45,15.34h1v.32h-1v3.11c0,.24.03.4.09.48.06.08.16.12.28.12.08,0,.17-.04.26-.11.09-.07.16-.17.21-.29l.27.15c-.09.22-.22.37-.41.47-.19.1-.42.15-.71.15-.41,0-.74-.08-.97-.24-.24-.16-.36-.41-.36-.76v-3.09h-.61v-.32c.27,0,.48-.03.62-.08.14-.05.26-.15.34-.29.08-.14.16-.37.24-.67h.74v1.04Z"/><path class="b" d="m70.71,19.14c0,.14.04.2.13.19l.33-.02v.34h-2.26v-.34l.33.02h.02c.07,0,.11-.06.11-.19v-3.28c0-.12-.04-.18-.12-.2l-.33.02v-.33h1.79v3.8Zm-.13-5.98c.15.12.22.27.22.46s-.07.35-.22.47c-.15.12-.33.17-.56.17s-.42-.06-.56-.17c-.15-.11-.22-.27-.22-.47s.07-.34.22-.46c.15-.11.33-.17.56-.17s.42.06.56.17Z"/><path class="b" d="m73.21,13.15s.04.11.04.21-.02.17-.05.21c-.03.04-.08.06-.15.06-.03,0-.06,0-.08-.02-.02-.01-.05-.04-.07-.06-.03-.03-.06-.06-.09-.07s-.07-.03-.12-.03c-.04,0-.08.01-.11.04v.03s0,.05.02.09c.02.04.05.07.07.08.03.02.06.03.12.04,0,0,.02,0,.06.02.04.01.06.04.08.07.02.04.04.08.04.11,0,.07-.06.13-.17.2-.08.04-.14.06-.19.06-.06,0-.11-.03-.15-.09-.01-.02-.02-.05-.02-.08,0-.02,0-.05.01-.09,0-.04.02-.08.02-.1,0-.04-.01-.08-.04-.12-.02-.04-.04-.06-.08-.07-.04,0-.07.03-.08.07-.02.04-.04.08-.04.12,0,.02,0,.06.02.1.01.04.02.07.02.09,0,.03,0,.05-.02.08-.04.07-.09.11-.14.11-.03,0-.09-.02-.19-.07-.11-.06-.17-.13-.17-.21,0-.03,0-.06.03-.1.02-.03.03-.05.05-.06s.05-.02.09-.03c.05-.01.09-.03.12-.04.03-.02.05-.04.07-.08.01-.02.02-.05.02-.07s0-.04,0-.05c-.03-.02-.07-.04-.1-.04-.05,0-.08,0-.11.02-.03.02-.06.04-.09.08-.03.03-.05.05-.07.06-.02.01-.05.02-.08.02-.07,0-.12-.02-.15-.06-.03-.04-.04-.11-.04-.21,0-.18.07-.27.2-.27.04,0,.06,0,.08.02.02.01.04.04.07.06.03.03.06.06.09.07.03.02.06.02.11.02.04,0,.08,0,.11-.03,0-.01,0-.03,0-.04,0-.02,0-.04-.02-.08-.02-.04-.05-.07-.07-.08s-.06-.03-.12-.04c-.04-.01-.08-.02-.09-.03s-.04-.03-.05-.06c-.02-.05-.04-.08-.04-.11,0-.07.06-.13.18-.2.07-.04.13-.07.18-.07.06,0,.11.03.15.09.02.03.02.06.02.08,0,.02,0,.05-.02.09-.01.04-.02.08-.02.11,0,.04.01.08.04.12.02.04.04.06.08.07.04,0,.07-.03.08-.07.02-.04.04-.08.04-.12,0-.02,0-.06-.02-.1-.01-.04-.02-.07-.02-.09,0-.03,0-.05.02-.08.04-.07.09-.1.14-.1.04,0,.11.02.19.07.11.06.17.13.17.2,0,.03-.01.07-.03.11-.02.04-.05.06-.08.07-.04.01-.05.02-.06.02-.05.01-.09.03-.12.04-.03.02-.05.04-.07.08-.03.04-.03.08-.02.12.03.02.06.03.1.03.05,0,.09,0,.12-.03s.06-.04.09-.07c.02-.02.04-.04.07-.05.03-.02.05-.02.08-.02.07,0,.12.02.15.06Z"/></svg>