<?xml version="1.0" encoding="UTF-8"?><svg id="a" xmlns="http://www.w3.org/2000/svg" viewBox="0 0 55.32 19.45"><defs><style>.b{fill:#fff;}</style></defs><path class="b" d="m6.07,5.7l.36.02h.02c.12,0,.17-.07.17-.22V.58c0-.08-.02-.14-.05-.18-.03-.04-.09-.05-.18-.05l-.32.02v-.38h2.68c.77,0,1.33.14,1.7.42.37.28.55.71.55,1.29s-.18,1-.53,1.34-.84.5-1.44.5h-1v1.95c0,.15.07.22.2.22l.5-.02v.38h-2.66v-.38Zm2.52-2.52c.27,0,.5-.14.68-.42.18-.28.27-.63.27-1.06,0-.4-.09-.73-.27-.98-.18-.25-.42-.38-.71-.38h-.41s-.05.01-.08.04-.04.05-.04.09v2.71h.56Z"/><path class="b" d="m11.76,2.23c.38-.39.95-.58,1.71-.58s1.34.19,1.71.58c.37.39.56.95.56,1.68,0,1.51-.76,2.27-2.27,2.27-.76,0-1.33-.19-1.71-.58-.38-.39-.57-.95-.57-1.69s.19-1.29.57-1.68Zm1.05,3.16c.13.29.35.43.66.43s.52-.14.65-.43.19-.77.19-1.47-.06-1.21-.19-1.5-.35-.44-.65-.44-.52.15-.66.44-.2.79-.2,1.5.07,1.17.2,1.46Z"/><path class="b" d="m21.17,5.74v.35h-1.86c.03-.1.05-.25.05-.45v-.46c-.31.67-.82,1.01-1.55,1.01-.44,0-.76-.12-.97-.36-.2-.24-.31-.62-.31-1.15v-2.41c0-.13-.04-.19-.13-.19l-.34.02v-.34h1.8v2.98c0,.35.03.59.09.74s.18.22.36.22c.16,0,.32-.07.48-.21.16-.14.29-.35.39-.64.1-.28.16-.62.16-1.01v-1.57c0-.14-.04-.2-.12-.2l-.4.02v-.34h1.86v3.81c0,.12.04.19.13.19l.34-.02Z"/><path class="b" d="m25.3,1.91c.19.17.28.39.28.66,0,.2-.06.36-.18.46-.12.1-.26.15-.43.15-.14,0-.27-.04-.38-.11s-.17-.17-.17-.31c0-.05.01-.12.04-.21.02-.12.03-.19.03-.2,0-.15-.06-.22-.19-.22-.18,0-.33.1-.47.3-.14.2-.25.45-.32.75-.07.3-.12.59-.12.87v1.53c0,.13.04.19.13.19l.7-.02v.35h-2.59v-.35l.29.02c.09,0,.13-.06.13-.19v-3.29c0-.14-.04-.2-.13-.2l-.33.02v-.34h1.85s-.03.11-.04.2-.02.18-.02.27v.47c.24-.69.65-1.04,1.2-1.04.29,0,.53.08.72.25Z"/><path class="b" d="m32.47,1.75v.34l-.33-.02h-.03c-.09,0-.16.05-.2.15l-1.6,3.91h-.62l-1.57-3.93s-.04-.07-.08-.1c-.04-.03-.08-.04-.12-.03l-.33.02v-.34h2.56v.34l-.42-.02s-.09.02-.13.06c-.04.04-.05.09-.02.14l.98,2.35.94-2.39s.02-.05.02-.08c0-.06-.03-.09-.1-.08l-.42.02v-.34h1.48Z"/><path class="b" d="m33.05,2.23c.38-.39.95-.58,1.71-.58s1.34.19,1.71.58c.37.39.56.95.56,1.68,0,1.51-.76,2.27-2.27,2.27-.76,0-1.33-.19-1.71-.58-.38-.39-.57-.95-.57-1.69s.19-1.29.57-1.68Zm1.05,3.16c.13.29.35.43.66.43s.52-.14.65-.43c.13-.29.19-.77.19-1.47s-.06-1.21-.19-1.5c-.13-.29-.35-.44-.65-.44s-.52.15-.66.44c-.13.29-.2.79-.2,1.5s.07,1.17.2,1.46Z"/><path class="b" d="m39.29,1.75h1.01v.33h-1.01v3.12c0,.24.03.4.09.48.06.08.16.12.29.12.08,0,.17-.04.26-.11s.16-.17.21-.29l.28.15c-.09.22-.23.38-.41.47-.19.1-.42.15-.71.15-.41,0-.74-.08-.98-.24s-.36-.41-.36-.76v-3.1h-.61v-.33c.27,0,.48-.03.62-.08s.26-.15.34-.29.16-.37.24-.67h.74v1.04Z"/><path class="b" d="m44.48,1.91c.19.17.28.39.28.66,0,.2-.06.36-.18.46s-.26.15-.43.15c-.14,0-.27-.04-.38-.11-.11-.07-.17-.17-.17-.31,0-.05.01-.12.04-.21.02-.12.03-.19.03-.2,0-.15-.07-.22-.19-.22-.18,0-.33.1-.47.3-.14.2-.25.45-.32.75-.08.3-.12.59-.12.87v1.53c0,.13.04.19.13.19l.7-.02v.35h-2.59v-.35l.29.02c.09,0,.13-.06.13-.19v-3.29c0-.14-.04-.2-.13-.2l-.33.02v-.34h1.85s-.03.11-.04.2c-.01.09-.02.18-.02.27v.47c.24-.69.64-1.04,1.2-1.04.29,0,.53.08.72.25Z"/><path class="b" d="m48.72,2.15c.37.34.56.81.57,1.43v.38h-2.93c0,.58.11,1.03.32,1.33s.54.46.96.47c.32,0,.59-.08.83-.24.23-.16.4-.35.51-.59l.28.19c-.16.33-.41.59-.75.77-.34.18-.75.27-1.24.27-.81,0-1.4-.18-1.77-.55-.37-.37-.56-.93-.56-1.7s.19-1.36.58-1.73.96-.56,1.73-.56c.62,0,1.11.17,1.48.5Zm-2.15.3c-.14.3-.2.69-.2,1.18h1.35c.07,0,.12-.02.15-.07.03-.05.05-.14.05-.27,0-.44-.06-.77-.17-.98-.11-.21-.29-.32-.54-.32-.29,0-.51.15-.64.45Z"/><path class="b" d="m.05,15.52l.35-.02c0,.35.14.63.43.87.29.23.64.35,1.04.35.22,0,.4-.05.54-.16.13-.11.2-.25.2-.44,0-.16-.05-.28-.15-.37-.1-.09-.27-.17-.5-.23l-.73-.2c-.39-.11-.68-.28-.87-.5-.19-.22-.28-.51-.28-.86,0-.42.15-.76.44-1.02.29-.26.7-.39,1.23-.39.14,0,.27,0,.39.03.12.02.26.05.43.1.22.06.39.09.51.09.11,0,.21-.03.31-.08l-.06,1.16h-.31c0-.26-.11-.48-.32-.67-.21-.19-.5-.29-.87-.29-.21,0-.38.05-.5.16s-.19.24-.19.39c0,.13.05.24.14.33s.23.16.42.21l.7.18c.47.12.79.3.96.52.17.22.26.51.26.87,0,.48-.16.86-.49,1.12-.33.27-.76.4-1.29.4-.16,0-.31-.01-.47-.05-.16-.03-.41-.09-.75-.18-.11-.03-.2-.04-.29-.04-.15,0-.25.02-.32.06l.05-1.34Z"/><path class="b" d="m7.87,13.04c.37.34.56.81.57,1.43v.38h-2.93c0,.58.11,1.03.32,1.33s.53.46.96.47c.32,0,.59-.08.83-.24.23-.16.4-.36.51-.59l.27.19c-.16.33-.41.59-.75.77-.34.18-.76.27-1.24.27-.81,0-1.4-.18-1.77-.55-.37-.37-.56-.93-.56-1.7s.19-1.36.58-1.73c.39-.37.96-.55,1.73-.55.62,0,1.11.17,1.48.5Zm-2.15.3c-.14.3-.2.69-.2,1.18h1.35c.07,0,.12-.02.15-.07.03-.05.05-.14.05-.26,0-.44-.06-.77-.17-.98-.11-.21-.29-.32-.54-.32-.29,0-.51.15-.64.45Zm2.01-2.51l-1.7,1.04c-.09.06-.17.09-.24.09s-.11-.03-.11-.1.05-.16.16-.28l.97-1.06c.1-.12.17-.19.21-.21.04-.03.09-.04.16-.04.12,0,.27.05.44.14.17.09.25.17.25.24,0,.05-.04.12-.13.18Z"/><path class="b" d="m10.64,17.09c0,.8-.13,1.39-.4,1.78s-.67.58-1.21.58c-.41,0-.74-.07-.97-.21-.23-.14-.35-.33-.35-.57,0-.18.06-.32.17-.43s.27-.16.47-.16c.12,0,.25.03.37.1.13.07.19.19.19.36,0,.03,0,.09-.03.16-.02.07-.03.12-.03.15,0,.17.07.25.22.25.1,0,.18-.05.24-.15.06-.1.09-.22.09-.36,0-.07,0-.18-.03-.32-.05-.32-.07-.63-.07-.93v-4.19c0-.06-.01-.11-.04-.15-.02-.04-.06-.06-.1-.05l-.34.02v-.34h1.8v4.45Zm-.12-6.64c.15.12.22.27.22.46s-.07.35-.22.47c-.15.12-.34.17-.58.17s-.42-.06-.56-.17-.21-.27-.21-.47c0-.19.07-.34.21-.46s.33-.17.56-.17.42.06.57.17Z"/><path class="b" d="m12.08,13.12c.38-.39.95-.58,1.71-.58s1.34.19,1.71.58c.37.39.56.95.56,1.68,0,1.51-.76,2.27-2.27,2.27-.76,0-1.33-.19-1.71-.58-.38-.39-.57-.95-.57-1.69s.19-1.29.57-1.68Zm1.05,3.16c.13.29.35.43.66.43s.52-.14.65-.43.19-.77.19-1.47-.06-1.21-.19-1.5-.35-.44-.65-.44-.52.15-.66.44c-.13.29-.2.79-.2,1.5s.07,1.17.2,1.46Z"/><path class="b" d="m21.48,16.62v.35h-1.86c.03-.1.05-.25.05-.45v-.46c-.31.67-.82,1.01-1.55,1.01-.44,0-.76-.12-.97-.36-.2-.24-.31-.62-.31-1.15v-2.41c0-.13-.04-.19-.13-.19l-.34.02v-.34h1.8v2.98c0,.35.03.59.09.74s.18.22.36.22c.16,0,.32-.07.48-.21.16-.14.29-.35.39-.64.1-.28.16-.62.16-1.01v-1.57c0-.14-.04-.2-.12-.2l-.4.02v-.34h1.86v3.81c0,.12.04.19.13.19l.34-.02Z"/><path class="b" d="m25.61,12.79c.19.17.28.39.28.66,0,.2-.06.36-.18.46-.12.1-.26.15-.43.15-.14,0-.27-.04-.38-.11s-.17-.17-.17-.31c0-.05.01-.12.04-.21.02-.12.03-.19.03-.2,0-.15-.06-.22-.19-.22-.18,0-.33.1-.47.3-.14.2-.25.45-.32.75-.07.3-.12.59-.12.87v1.53c0,.13.04.19.13.19l.7-.02v.35h-2.59v-.35l.29.02c.09,0,.13-.06.13-.19v-3.29c0-.14-.04-.2-.13-.2l-.33.02v-.34h1.85s-.03.11-.04.2c-.01.09-.02.18-.02.27v.47c.24-.69.65-1.04,1.2-1.04.29,0,.53.08.72.25Z"/><path class="b" d="m31.44,12.68c.27.09.48.22.64.39.15.16.23.34.23.54,0,.18-.06.33-.17.45s-.27.18-.47.18c-.16,0-.3-.04-.4-.12s-.16-.19-.16-.34c0-.06.01-.13.04-.21.03-.07.05-.14.05-.22,0-.15-.06-.26-.18-.34-.12-.08-.27-.12-.44-.12-.29,0-.52.14-.68.41s-.24.74-.24,1.4c0,.73.1,1.25.3,1.55.2.3.48.45.83.45.28,0,.53-.08.76-.23.23-.15.4-.4.52-.75l.32.15c-.29.8-.91,1.2-1.84,1.2-.67,0-1.21-.18-1.64-.55-.43-.37-.65-.93-.65-1.68s.21-1.33.63-1.72.97-.59,1.65-.59c.34,0,.64.05.92.14Z"/><path class="b" d="m36.51,13.04c.37.34.56.81.57,1.43v.38h-2.93c0,.58.11,1.03.32,1.33s.54.46.96.47c.32,0,.59-.08.83-.24.23-.16.4-.36.51-.59l.28.19c-.16.33-.41.59-.75.77-.34.18-.75.27-1.24.27-.81,0-1.4-.18-1.77-.55-.37-.37-.56-.93-.56-1.7s.19-1.36.58-1.73.96-.55,1.73-.55c.62,0,1.11.17,1.48.5Zm-2.15.3c-.14.3-.2.69-.2,1.18h1.35c.07,0,.12-.02.15-.07.03-.05.05-.14.05-.26,0-.44-.06-.77-.17-.98-.11-.21-.29-.32-.54-.32-.29,0-.51.15-.64.45Z"/><path class="b" d="m39.33,12.64h1.01v.33h-1.01v3.12c0,.24.03.4.09.48.06.08.16.12.29.12.08,0,.17-.04.26-.11s.16-.17.21-.29l.28.15c-.09.22-.23.38-.41.47-.19.1-.42.15-.71.15-.41,0-.74-.08-.98-.24-.24-.16-.36-.41-.36-.76v-3.1h-.61v-.33c.27,0,.48-.03.62-.08s.26-.15.34-.29.16-.37.24-.67h.74v1.04Z"/><path class="b" d="m46.67,13.04c.37.34.56.81.57,1.43v.38h-2.93c0,.58.11,1.03.32,1.33s.54.46.96.47c.32,0,.59-.08.83-.24.23-.16.4-.36.51-.59l.28.19c-.16.33-.41.59-.75.77-.34.18-.75.27-1.24.27-.81,0-1.4-.18-1.77-.55-.37-.37-.56-.93-.56-1.7s.19-1.36.58-1.73.96-.55,1.73-.55c.62,0,1.11.17,1.48.5Zm-2.15.3c-.14.3-.2.69-.2,1.18h1.35c.07,0,.12-.02.15-.07.03-.05.05-.14.05-.26,0-.44-.06-.77-.17-.98-.11-.21-.29-.32-.54-.32-.29,0-.51.15-.64.45Zm2.01-2.51l-1.7,1.04c-.09.06-.17.09-.25.09s-.11-.03-.11-.1.05-.16.16-.28l.97-1.06c.1-.12.17-.19.21-.21s.09-.04.16-.04c.12,0,.27.05.44.14.17.09.25.17.25.24,0,.05-.04.12-.13.18Z"/><path class="b" d="m49.49,12.64h1.01v.33h-1.01v3.12c0,.24.03.4.09.48.06.08.16.12.29.12.08,0,.17-.04.26-.11s.16-.17.21-.29l.28.15c-.09.22-.23.38-.41.47-.19.1-.42.15-.71.15-.41,0-.74-.08-.98-.24-.24-.16-.36-.41-.36-.76v-3.1h-.61v-.33c.27,0,.48-.03.62-.08s.26-.15.34-.29.16-.37.24-.67h.74v1.04Z"/><path class="b" d="m54.75,13.04c.37.34.56.81.57,1.43v.38h-2.93c0,.58.11,1.03.32,1.33s.54.46.96.47c.32,0,.59-.08.83-.24.23-.16.4-.36.51-.59l.28.19c-.16.33-.41.59-.75.77-.34.18-.75.27-1.24.27-.81,0-1.4-.18-1.77-.55-.37-.37-.56-.93-.56-1.7s.19-1.36.58-1.73.96-.55,1.73-.55c.62,0,1.11.17,1.48.5Zm-2.15.3c-.14.3-.2.69-.2,1.18h1.35c.07,0,.12-.02.15-.07.03-.05.05-.14.05-.26,0-.44-.06-.77-.17-.98-.11-.21-.29-.32-.54-.32-.29,0-.51.15-.64.45Zm2.01-2.51l-1.7,1.04c-.09.06-.17.09-.25.09s-.11-.03-.11-.1.05-.16.16-.28l.97-1.06c.1-.12.17-.19.21-.21s.09-.04.16-.04c.12,0,.27.05.44.14.17.09.25.17.25.24,0,.05-.04.12-.13.18Z"/></svg>