<?xml version="1.0" encoding="UTF-8"?><svg id="a" xmlns="http://www.w3.org/2000/svg" viewBox="0 0 90.3 20.74"><defs><style>.b{fill:#fff;}</style></defs><path class="b" d="m.84,2.1c.56-.56,1.34-.83,2.33-.83.27,0,.5.02.67.06.18.04.39.1.64.18.18.07.33.12.46.15.13.03.27.05.43.05-.03.21-.04.46-.04.76,0,.14,0,.27.01.38,0,.11.02.17.03.19h-.33c-.08-.4-.29-.74-.62-1.02-.33-.28-.7-.42-1.11-.42-.56,0-1,.25-1.31.74s-.46,1.2-.46,2.11.16,1.55.49,2.03.77.72,1.32.72c.43,0,.8-.14,1.13-.41.32-.28.53-.62.62-1.03h.37c-.04.33-.06.62-.06.87,0,.2.01.36.03.48h-.06c-.12,0-.25.02-.38.05s-.3.08-.51.15c-.31.09-.55.16-.74.2-.19.04-.39.07-.62.07-.64,0-1.19-.12-1.66-.38-.47-.25-.83-.61-1.08-1.08-.25-.46-.38-1.02-.38-1.66,0-1,.28-1.79.84-2.34Z"/><path class="b" d="m11.14,7.1v.35h-2.32v-.35l.39.02c.09-.02.13-.08.13-.19v-2.46c0-.36-.03-.61-.09-.75-.06-.14-.19-.21-.39-.21-.18,0-.35.08-.51.22s-.3.37-.41.66c-.11.29-.16.64-.16,1.05v1.5c0,.13.04.19.13.19l.4-.02v.35h-2.33v-.35l.34.02c.09-.02.13-.08.13-.19V.53c0-.12-.04-.18-.13-.2l-.34.02V0h1.8v4.03c.15-.33.36-.58.63-.76.27-.18.59-.27.95-.27.46,0,.8.12,1.01.35s.32.6.32,1.11v2.45c0,.13.04.19.13.19l.34-.02Z"/><path class="b" d="m12.03,3.6c.38-.39.95-.58,1.71-.58s1.34.19,1.71.58c.37.39.56.95.56,1.68,0,1.51-.76,2.27-2.27,2.27-.76,0-1.33-.19-1.71-.58s-.57-.95-.57-1.69.19-1.29.57-1.68Zm1.05,3.16c.13.29.35.43.66.43s.52-.14.65-.43.19-.77.19-1.47-.06-1.21-.19-1.5-.35-.44-.65-.44-.52.15-.66.44c-.13.29-.2.79-.2,1.5s.07,1.17.2,1.46Z"/><path class="b" d="m18.22,6.93c0,.14.04.2.13.19l.34-.02v.35h-2.27v-.35l.34.02h.02c.07,0,.11-.06.11-.19v-3.29c0-.12-.04-.18-.12-.2l-.34.02v-.34h1.79v3.81Zm-.13-6c.15.12.22.27.22.46s-.07.35-.22.47-.33.17-.57.17-.42-.06-.57-.17-.22-.27-.22-.47.07-.34.22-.46.33-.17.57-.17.42.06.57.17Z"/><path class="b" d="m19.3,6l.35-.02c0,.35.14.64.43.87s.64.35,1.04.35c.22,0,.4-.05.54-.16.13-.11.2-.25.2-.44,0-.16-.05-.28-.15-.37-.1-.09-.27-.17-.5-.23l-.73-.2c-.39-.11-.68-.27-.87-.5-.19-.22-.28-.51-.28-.86,0-.42.15-.76.44-1.02.29-.26.7-.39,1.23-.39.14,0,.27.01.39.03.12.02.26.05.43.1.22.06.39.09.51.09.11,0,.21-.03.31-.08l-.06,1.16h-.31c0-.26-.11-.48-.32-.67s-.5-.29-.87-.29c-.21,0-.38.05-.5.16-.13.11-.19.24-.19.39,0,.13.05.24.14.33.09.09.23.16.42.21l.7.18c.47.12.79.29.96.52.17.22.26.51.26.87,0,.48-.16.86-.49,1.13-.33.27-.76.4-1.29.4-.16,0-.31-.01-.47-.05-.16-.03-.41-.09-.75-.18-.11-.03-.2-.04-.29-.04-.15,0-.25.02-.32.06l.05-1.34Z"/><path class="b" d="m25.13,6.93c0,.14.04.2.13.19l.34-.02v.35h-2.27v-.35l.34.02h.02c.07,0,.11-.06.11-.19v-3.29c0-.12-.04-.18-.12-.2l-.34.02v-.34h1.79v3.81Zm-.13-6c.15.12.22.27.22.46s-.07.35-.22.47-.33.17-.57.17-.42-.06-.57-.17-.22-.27-.22-.47.07-.34.22-.46.33-.17.57-.17.42.06.57.17Z"/><path class="b" d="m26.21,6l.35-.02c0,.35.14.64.43.87s.64.35,1.04.35c.22,0,.4-.05.54-.16.13-.11.2-.25.2-.44,0-.16-.05-.28-.15-.37-.1-.09-.27-.17-.5-.23l-.73-.2c-.39-.11-.68-.27-.87-.5-.19-.22-.28-.51-.28-.86,0-.42.15-.76.44-1.02.29-.26.7-.39,1.23-.39.14,0,.27.01.39.03.12.02.26.05.43.1.22.06.39.09.51.09.11,0,.21-.03.31-.08l-.06,1.16h-.31c0-.26-.11-.48-.32-.67s-.5-.29-.87-.29c-.21,0-.38.05-.5.16-.13.11-.19.24-.19.39,0,.13.05.24.14.33.09.09.23.16.42.21l.7.18c.47.12.79.29.96.52.17.22.26.51.26.87,0,.48-.16.86-.49,1.13-.33.27-.76.4-1.29.4-.16,0-.31-.01-.47-.05-.16-.03-.41-.09-.75-.18-.11-.03-.2-.04-.29-.04-.15,0-.25.02-.32.06l.05-1.34Z"/><path class="b" d="m30.43,6l.35-.02c0,.35.14.64.43.87s.64.35,1.04.35c.22,0,.4-.05.54-.16.13-.11.2-.25.2-.44,0-.16-.05-.28-.15-.37-.1-.09-.27-.17-.5-.23l-.73-.2c-.39-.11-.68-.27-.87-.5-.19-.22-.28-.51-.28-.86,0-.42.15-.76.44-1.02.29-.26.7-.39,1.23-.39.14,0,.27.01.39.03.12.02.26.05.43.1.22.06.39.09.51.09.11,0,.21-.03.31-.08l-.06,1.16h-.31c0-.26-.11-.48-.32-.67s-.5-.29-.87-.29c-.21,0-.38.05-.5.16-.13.11-.19.24-.19.39,0,.13.05.24.14.33.09.09.23.16.42.21l.7.18c.47.12.79.29.96.52.17.22.26.51.26.87,0,.48-.16.86-.49,1.13-.33.27-.76.4-1.29.4-.16,0-.31-.01-.47-.05-.16-.03-.41-.09-.75-.18-.11-.03-.2-.04-.29-.04-.15,0-.25.02-.32.06l.05-1.34Z"/><path class="b" d="m38.25,3.52c.37.34.56.81.56,1.43v.38h-2.93c0,.58.11,1.03.32,1.33s.53.46.96.47c.32,0,.59-.08.83-.24.23-.16.4-.35.51-.59l.27.19c-.16.33-.41.59-.75.77-.34.18-.76.27-1.24.27-.81,0-1.4-.18-1.77-.55-.37-.37-.56-.93-.56-1.7s.19-1.36.58-1.73c.39-.37.96-.56,1.73-.56.62,0,1.11.17,1.48.5Zm-2.15.3c-.14.3-.2.69-.2,1.18h1.35c.07,0,.12-.02.15-.07.03-.05.05-.14.05-.27,0-.44-.06-.77-.17-.98-.11-.21-.29-.32-.54-.32-.29,0-.51.15-.64.45Z"/><path class="b" d="m43.16,6.03v1.42h-3.59c-.06.02-.13.02-.2.02v-.29l2.16-3.74h-.61c-.32,0-.58.1-.77.29-.19.19-.32.46-.37.82h-.29l.09-1.45s.12,0,.3,0c.18,0,.41,0,.68,0h2.53v.27l-2.11,3.73h.57c.43,0,.75-.09.98-.27.22-.18.34-.45.34-.81h.3Z"/><path class="b" d="m50.26,3.58c.29.37.43.95.43,1.72s-.16,1.32-.47,1.69c-.32.37-.8.56-1.46.56-.28,0-.52-.04-.72-.13s-.35-.21-.44-.37v2.31c0,.14.04.2.13.2l.63-.02v.34h-2.53v-.34l.29.02c.09,0,.13-.07.13-.2V3.64c0-.14-.04-.2-.13-.2l-.34.02v-.34h1.84c-.03.17-.04.34-.04.52v.25c.1-.29.26-.5.47-.65s.5-.22.87-.22c.6,0,1.04.19,1.32.56Zm-2.4.35c-.16.3-.24.7-.24,1.19v.44c0,1.02.29,1.53.88,1.53.2,0,.36-.06.47-.17.11-.11.19-.3.24-.55.05-.25.07-.61.07-1.06s-.02-.83-.06-1.09c-.04-.26-.11-.44-.22-.56s-.25-.17-.44-.17c-.3,0-.53.15-.69.45Z"/><path class="b" d="m55.57,7.1v.35h-1.85c.03-.16.04-.29.04-.38v-.27c-.29.47-.76.7-1.4.7-.43,0-.75-.1-.97-.29-.22-.19-.33-.48-.33-.86,0-.5.22-.86.65-1.1.43-.24,1.12-.36,2.06-.36v-.71c0-.26-.04-.46-.13-.6-.09-.14-.27-.21-.55-.21-.24,0-.41.04-.5.12-.1.08-.15.18-.15.29,0,.09.02.17.05.23.03.1.04.16.04.2,0,.15-.05.26-.16.35-.11.08-.24.12-.4.12-.19,0-.34-.06-.46-.17-.12-.11-.18-.25-.18-.42,0-.33.17-.59.51-.78.34-.2.8-.3,1.38-.3,1.26,0,1.89.45,1.89,1.35v2.56c0,.13.04.19.13.19l.34-.02Zm-2.08-.47c.15-.18.25-.42.28-.71v-.67c-.46,0-.8.08-1.01.25-.21.16-.32.41-.32.73,0,.45.17.67.5.67.21,0,.39-.09.54-.27Z"/><path class="b" d="m59.61,3.27c.19.17.28.39.28.66,0,.2-.06.36-.18.46s-.26.15-.43.15c-.14,0-.27-.04-.38-.11-.11-.07-.17-.17-.17-.31,0-.05.01-.12.04-.21.02-.12.03-.19.03-.2,0-.15-.07-.22-.19-.22-.18,0-.33.1-.47.3-.14.2-.25.45-.32.75-.08.3-.12.59-.12.87v1.53c0,.13.04.19.13.19l.7-.02v.35h-2.59v-.35l.29.02c.09,0,.13-.06.13-.19v-3.29c0-.14-.04-.2-.13-.2l-.33.02v-.34h1.85s-.03.11-.04.2c-.01.09-.02.18-.02.27v.47c.24-.69.64-1.04,1.2-1.04.29,0,.53.08.72.25Z"/><path class="b" d="m68.06,7.1v.35h-2.3v-.35l.37.02c.09-.02.13-.08.13-.19v-2.46c0-.35-.03-.59-.08-.74s-.16-.22-.32-.22c-.15,0-.31.08-.47.22-.17.15-.31.37-.42.65-.12.29-.18.62-.18,1.01v1.55c0,.13.04.19.13.19l.36-.02v.35h-2.32v-.35l.37.02c.09-.02.13-.08.13-.19v-2.46c0-.36-.03-.61-.08-.75s-.17-.21-.34-.21c-.14,0-.29.07-.45.21-.16.14-.3.35-.41.62-.12.27-.18.59-.2.95v1.65c0,.14.04.2.13.19l.37-.02v.35h-2.3v-.35l.34.02c.09-.02.13-.08.13-.19v-3.29c0-.12-.04-.18-.13-.2l-.34.02v-.34h1.86c-.03.1-.05.22-.05.35v.57c.14-.32.35-.57.61-.75.26-.18.58-.27.95-.27s.65.08.85.25.32.44.37.83c.14-.35.35-.61.62-.8s.59-.28.97-.28c.43,0,.75.12.95.35s.3.6.3,1.11v2.45c0,.13.04.19.13.19l.34-.02Z"/><path class="b" d="m70.18,6.93c0,.14.04.2.13.19l.34-.02v.35h-2.27v-.35l.34.02h.02c.07,0,.11-.06.11-.19v-3.29c0-.12-.04-.18-.12-.2l-.34.02v-.34h1.79v3.81Zm-.13-6c.15.12.22.27.22.46s-.07.35-.22.47c-.15.12-.33.17-.57.17s-.42-.06-.56-.17c-.15-.12-.22-.27-.22-.47s.07-.34.22-.46c.15-.12.33-.17.56-.17s.42.06.57.17Z"/><path class="b" d="m77.57,3.58c.29.37.43.95.43,1.72s-.16,1.32-.47,1.69c-.32.37-.8.56-1.46.56-.28,0-.52-.04-.72-.13s-.35-.21-.44-.37v2.31c0,.14.04.2.13.2l.63-.02v.34h-2.53v-.34l.29.02c.09,0,.13-.07.13-.2V3.64c0-.14-.04-.2-.13-.2l-.34.02v-.34h1.84c-.03.17-.04.34-.04.52v.25c.1-.29.26-.5.47-.65s.5-.22.87-.22c.6,0,1.04.19,1.32.56Zm-2.4.35c-.16.3-.24.7-.24,1.19v.44c0,1.02.29,1.53.88,1.53.2,0,.36-.06.47-.17.11-.11.19-.3.24-.55.05-.25.07-.61.07-1.06s-.02-.83-.06-1.09c-.04-.26-.11-.44-.22-.56s-.25-.17-.44-.17c-.3,0-.53.15-.69.45Z"/><path class="b" d="m78.45,7.1l.34.02c.09-.02.13-.08.13-.19V.52c0-.12-.04-.19-.12-.21l-.34.02v-.33h1.79v6.93c0,.14.04.2.13.19l.34-.02v.35h-2.27v-.35Z"/><path class="b" d="m86.14,7.1v.35h-1.86c.03-.1.05-.25.05-.45v-.46c-.31.67-.82,1.01-1.55,1.01-.44,0-.76-.12-.97-.36-.2-.24-.3-.62-.3-1.15v-2.41c0-.13-.04-.19-.13-.19l-.34.02v-.34h1.8v2.98c0,.35.03.59.09.74.06.15.18.22.36.22.16,0,.32-.07.48-.21.16-.14.29-.35.39-.64.1-.28.16-.62.16-1.01v-1.57c0-.14-.04-.2-.12-.2l-.4.02v-.34h1.86v3.81c0,.12.04.19.13.19l.34-.02Z"/><path class="b" d="m86.75,6l.35-.02c0,.35.14.64.43.87s.64.35,1.04.35c.22,0,.4-.05.54-.16.13-.11.2-.25.2-.44,0-.16-.05-.28-.15-.37-.1-.09-.27-.17-.5-.23l-.73-.2c-.39-.11-.68-.27-.87-.5-.19-.22-.28-.51-.28-.86,0-.42.15-.76.44-1.02.29-.26.7-.39,1.23-.39.14,0,.27.01.39.03.12.02.26.05.43.1.22.06.39.09.51.09.11,0,.21-.03.3-.08l-.06,1.16h-.31c0-.26-.11-.48-.32-.67s-.5-.29-.87-.29c-.21,0-.38.05-.5.16-.12.11-.19.24-.19.39,0,.13.05.24.14.33.1.09.23.16.42.21l.7.18c.47.12.79.29.96.52.17.22.26.51.26.87,0,.48-.16.86-.49,1.13-.33.27-.76.4-1.29.4-.16,0-.31-.01-.47-.05-.16-.03-.41-.09-.75-.18-.11-.03-.2-.04-.29-.04-.15,0-.25.02-.32.06l.05-1.34Z"/><path class="b" d="m10.84,16.74c.31-.38.77-.58,1.37-.58.31,0,.58.08.81.23.23.15.38.34.45.56v-3.29c0-.14-.04-.2-.13-.2l-.47.02v-.33h1.94v6.92c0,.13.04.19.13.19l.34-.02v.35h-1.87c.01-.05.02-.11.02-.16v-.22c0-.08,0-.13.01-.17,0-.04.01-.07.01-.08-.09.23-.23.41-.44.54-.2.13-.47.2-.78.2-.66,0-1.13-.18-1.42-.55-.29-.37-.43-.93-.43-1.7s.15-1.32.46-1.71Zm1.03,2.77c.04.25.12.43.23.55.11.12.26.17.46.17.31,0,.53-.13.68-.38.15-.25.22-.64.22-1.15v-.44c0-.52-.08-.92-.23-1.21-.16-.29-.38-.43-.67-.43-.27,0-.46.15-.58.46-.11.31-.17.76-.17,1.36,0,.46.02.81.07,1.06Z"/><path class="b" d="m19.45,16.67c.37.34.56.81.56,1.43v.38h-2.93c0,.58.11,1.03.32,1.33s.53.46.96.47c.32,0,.59-.08.83-.24.23-.16.4-.36.51-.59l.27.19c-.16.33-.41.59-.75.77-.34.18-.76.27-1.24.27-.81,0-1.4-.18-1.77-.55-.37-.37-.56-.93-.56-1.7s.19-1.36.58-1.73c.39-.37.96-.55,1.73-.55.62,0,1.11.17,1.48.5Zm-2.15.3c-.14.3-.2.69-.2,1.18h1.35c.07,0,.12-.02.15-.07.03-.05.05-.14.05-.26,0-.44-.06-.77-.17-.98-.11-.21-.29-.32-.54-.32-.29,0-.51.15-.64.45Z"/><path class="b" d="m28.32,18.39c-.09.43-.15.86-.2,1.28-.05.42-.08.74-.08.96-.08-.03-.33-.04-.77-.04h-4.39l-.04-1.04,1.59-1.47c.62-.59,1.11-1.15,1.44-1.67.34-.52.51-1.13.51-1.82,0-.49-.1-.86-.3-1.1-.2-.24-.46-.36-.79-.36-.26,0-.48.07-.64.21-.17.14-.25.33-.25.56,0,.11.02.24.06.39.03.17.05.3.05.39,0,.21-.08.37-.23.48s-.34.16-.57.16c-.29,0-.51-.09-.66-.26s-.23-.39-.23-.66c0-.3.11-.59.32-.85.21-.26.52-.47.91-.62.4-.16.85-.23,1.36-.23.81,0,1.46.17,1.97.51.51.34.76.85.76,1.53,0,.38-.08.74-.25,1.08-.17.34-.44.69-.8,1.04-.36.36-.86.77-1.5,1.25l-1.69,1.24h2.46c.48,0,.83-.07,1.05-.21.22-.14.36-.39.41-.74h.51Z"/><path class="b" d="m37.14,13.66c.45.64.68,1.51.68,2.6,0,1.32-.26,2.39-.79,3.23s-1.4,1.25-2.64,1.25c-.43,0-.8-.06-1.13-.19-.33-.12-.58-.29-.75-.5-.18-.21-.27-.43-.27-.68s.08-.45.23-.61c.16-.15.36-.23.6-.23s.45.05.6.16c.15.1.22.25.22.44,0,.09-.02.19-.05.31-.03.12-.05.22-.05.3,0,.15.06.27.18.37s.3.15.55.15c.49,0,.87-.26,1.12-.77.25-.51.4-1.2.46-2.06-.37.36-.85.53-1.43.53-.88,0-1.55-.23-2.03-.68-.48-.46-.72-1.09-.72-1.92,0-.52.12-.99.36-1.39.24-.41.59-.72,1.03-.95s.95-.34,1.52-.34c1.08,0,1.85.32,2.3.96Zm-1.28,3.33c.17-.38.26-.93.26-1.64,0-.62-.11-1.16-.33-1.6s-.54-.66-.98-.66-.75.18-.93.55c-.18.37-.27.94-.27,1.7,0,1.48.4,2.23,1.2,2.23.52,0,.87-.19,1.04-.57Z"/><path class="b" d="m38.64,14.53c.28-.61.67-1.06,1.16-1.37.49-.31,1.05-.46,1.69-.46s1.2.16,1.69.47c.49.31.88.77,1.16,1.38.28.61.42,1.34.42,2.19s-.14,1.55-.42,2.15c-.28.6-.66,1.06-1.15,1.37-.49.31-1.06.47-1.7.47s-1.22-.16-1.71-.47c-.49-.32-.87-.78-1.15-1.38-.27-.6-.41-1.32-.41-2.14s.14-1.59.42-2.2Zm1.48,4.36c.1.51.26.87.48,1.07.22.2.51.31.89.31s.67-.11.89-.32c.22-.21.38-.57.49-1.09.1-.51.16-1.23.16-2.15s-.05-1.68-.16-2.2-.26-.88-.48-1.09c-.22-.21-.52-.31-.9-.31s-.67.11-.89.33c-.22.22-.38.59-.48,1.11s-.16,1.24-.16,2.16.05,1.66.16,2.17Z"/><path class="b" d="m45.67,14.53c.28-.61.67-1.06,1.16-1.37.49-.31,1.05-.46,1.68-.46s1.2.16,1.69.47.88.77,1.16,1.38c.28.61.42,1.34.42,2.19s-.14,1.55-.42,2.15c-.28.6-.66,1.06-1.15,1.37-.49.31-1.06.47-1.7.47s-1.22-.16-1.71-.47-.87-.78-1.15-1.38c-.27-.6-.41-1.32-.41-2.14s.14-1.59.42-2.2Zm1.48,4.36c.1.51.26.87.48,1.07.22.2.51.31.88.31s.67-.11.89-.32c.22-.21.38-.57.49-1.09.1-.51.16-1.23.16-2.15s-.05-1.68-.16-2.2c-.1-.52-.26-.88-.48-1.09-.22-.21-.52-.31-.9-.31s-.67.11-.88.33c-.22.22-.38.59-.48,1.11s-.16,1.24-.16,2.16.05,1.66.16,2.17Z"/><path class="b" d="m60.08,20.25v.35h-2.32v-.35l.39.02c.09-.02.13-.08.13-.19v-2.46c0-.36-.03-.61-.09-.75s-.19-.21-.39-.21c-.18,0-.35.08-.51.22s-.3.37-.41.66c-.11.29-.16.64-.16,1.05v1.5c0,.13.04.19.13.19l.4-.02v.35h-2.33v-.35l.34.02c.09-.02.13-.08.13-.19v-6.4c0-.12-.04-.18-.13-.2l-.34.02v-.34h1.8v4.03c.15-.33.36-.58.63-.76.27-.18.59-.27.95-.27.46,0,.8.12,1.01.35.21.23.32.6.32,1.1v2.46c0,.13.04.19.13.19l.34-.02Z"/><path class="b" d="m60.96,16.74c.38-.39.95-.58,1.71-.58s1.34.19,1.71.58c.37.39.56.95.56,1.68,0,1.51-.76,2.27-2.27,2.27-.76,0-1.33-.19-1.71-.58-.38-.39-.57-.95-.57-1.69s.19-1.29.57-1.68Zm3.18-1.22c-.1,0-.21-.04-.34-.12l-1.13-.67-1.14.67c-.13.08-.24.12-.34.12-.08,0-.11-.03-.11-.08,0-.03.03-.07.08-.13.05-.06.12-.12.2-.2.2-.2.37-.37.49-.51l.23-.24.25-.25c.12-.12.23-.18.34-.18.1,0,.21.06.34.18l.24.25.23.24c.12.14.29.31.49.51.08.07.15.14.2.2.05.06.08.1.08.13,0,.05-.04.08-.12.08Zm-2.12,4.38c.13.29.35.43.66.43s.52-.14.65-.43c.13-.29.19-.77.19-1.47s-.06-1.21-.19-1.5c-.13-.29-.35-.44-.65-.44s-.52.15-.66.44c-.13.29-.2.79-.2,1.5s.07,1.17.2,1.46Z"/><path class="b" d="m67.2,16.26h1.01v.33h-1.01v3.12c0,.24.03.4.09.48.06.08.16.12.29.12.08,0,.17-.04.26-.11s.16-.17.21-.29l.28.15c-.09.22-.23.38-.41.47-.19.1-.42.15-.71.15-.41,0-.74-.08-.98-.24-.24-.16-.36-.41-.36-.76v-3.1h-.61v-.33c.27,0,.48-.03.62-.08s.26-.15.34-.29.16-.37.24-.67h.74v1.04Z"/><path class="b" d="m72.46,16.67c.37.34.56.81.57,1.43v.38h-2.93c0,.58.11,1.03.32,1.33s.54.46.96.47c.32,0,.59-.08.83-.24.23-.16.4-.36.51-.59l.28.19c-.16.33-.41.59-.75.77-.34.18-.75.27-1.24.27-.81,0-1.4-.18-1.77-.55-.37-.37-.56-.93-.56-1.7s.19-1.36.58-1.73.96-.55,1.73-.55c.62,0,1.11.17,1.48.5Zm-2.15.3c-.14.3-.2.69-.2,1.18h1.35c.07,0,.12-.02.15-.07.03-.05.05-.14.05-.26,0-.44-.06-.77-.17-.98-.11-.21-.29-.32-.54-.32-.29,0-.51.15-.64.45Z"/><path class="b" d="m73.43,20.25l.34.02c.09-.02.13-.08.13-.19v-6.41c0-.12-.04-.19-.12-.21l-.34.02v-.33h1.79v6.93c0,.14.04.2.13.19l.34-.02v.35h-2.27v-.35Z"/><path class="b" d="m76.31,19.15l.35-.02c0,.35.14.63.43.87.29.23.64.35,1.04.35.22,0,.4-.05.54-.16.13-.11.2-.25.2-.44,0-.16-.05-.28-.15-.37s-.27-.17-.5-.23l-.73-.2c-.39-.11-.68-.28-.87-.5-.19-.22-.28-.51-.28-.86,0-.42.15-.76.44-1.02.29-.26.7-.39,1.23-.39.14,0,.27,0,.39.03s.26.05.43.1c.22.06.39.09.51.09.11,0,.21-.03.3-.08l-.06,1.16h-.31c0-.26-.11-.48-.32-.67-.21-.19-.5-.29-.87-.29-.21,0-.38.05-.5.16-.12.11-.19.24-.19.39,0,.13.05.24.14.33.1.09.23.16.42.21l.7.18c.47.12.79.3.96.52.17.22.26.51.26.87,0,.48-.16.86-.49,1.12-.33.27-.76.4-1.29.4-.16,0-.31-.01-.47-.05-.16-.03-.41-.09-.75-.18-.11-.03-.2-.04-.29-.04-.15,0-.25.02-.32.06l.05-1.34Z"/></svg>