<?xml version="1.0" encoding="UTF-8"?><svg id="a" xmlns="http://www.w3.org/2000/svg" viewBox="0 0 167.04 7.79"><defs><style>.b{fill:#fff;}</style></defs><path class="b" d="m6.87,7.3v.39h-3.16v-.39l.48.02c.21.02.32-.06.32-.25,0-.12-.04-.26-.1-.41l-.39-.92H1.7l-.36.86c-.1.22-.15.39-.15.53,0,.15.08.22.23.21l.47-.03v.39H0v-.39l.31.02h.04c.14,0,.26-.07.35-.2.1-.15.21-.36.32-.61L3.18,1.3h.52l2.19,5.23c.1.25.2.45.31.6.1.13.22.19.37.19h.05l.26-.02Zm-5.02-1.93h2.02l-1.02-2.42-1,2.42Z"/><path class="b" d="m12.09,7.33v.36h-1.92c.03-.11.05-.26.05-.46v-.47c-.32.69-.85,1.04-1.6,1.04-.46,0-.79-.12-1-.37s-.32-.64-.32-1.18v-2.49c0-.13-.05-.2-.14-.2l-.35.02v-.35h1.86v3.08c0,.36.03.61.09.77.06.15.18.23.37.23.17,0,.33-.07.5-.22.17-.15.3-.37.41-.66.1-.29.16-.64.17-1.05v-1.62c0-.14-.04-.21-.13-.21l-.41.02v-.35h1.92v3.93c0,.13.05.19.14.2l.35-.02Z"/><path class="b" d="m23.35,7.3v.39h-2.76v-.39l.52.02c.14,0,.21-.08.21-.23V2.42l-2.42,5.38h-.34l-2.7-5.65v4.94c0,.15.07.23.2.23l.52-.02v.39h-1.77v-.39l.41.02c.14,0,.21-.08.21-.23V1.84s-.04-.07-.1-.06l-.44.02v-.39h2.17l2.21,4.59,2.07-4.59h1.97v.39l-.33-.02h-.02c-.06,0-.1.02-.14.06s-.05.09-.05.15v5.1c0,.17.07.25.21.23l.38-.02Z"/><path class="b" d="m27.73,3.63c.38.35.58.84.58,1.48v.39h-3.03c0,.6.11,1.06.33,1.38.22.32.55.48.99.48.33,0,.61-.08.85-.25s.41-.37.53-.6l.28.2c-.16.34-.42.61-.77.8-.35.19-.78.28-1.28.28-.83,0-1.44-.19-1.83-.57-.39-.38-.58-.96-.58-1.76s.2-1.4.6-1.78c.4-.38,1-.57,1.79-.57.64,0,1.15.17,1.53.52Zm-2.22.3c-.14.31-.21.72-.21,1.21h1.4c.07,0,.12-.02.16-.07s.05-.14.05-.27c0-.46-.06-.79-.17-1.01-.12-.22-.3-.33-.56-.33-.3,0-.52.16-.66.47Z"/><path class="b" d="m30.52,7.15c0,.14.05.21.14.2l.35-.02v.36h-2.35v-.36l.35.02h.02c.08,0,.12-.07.12-.2v-3.4c0-.12-.04-.19-.13-.21l-.35.02v-.35h1.85v3.93Zm-.13-6.19c.15.12.23.28.23.47s-.08.36-.23.48-.35.18-.58.18-.43-.06-.58-.18-.23-.28-.23-.48.08-.35.23-.47.35-.18.58-.18.43.06.58.18Z"/><path class="b" d="m31.47,7.33l.35.02c.09-.02.14-.09.14-.2V.54c0-.12-.04-.19-.13-.22l-.35.02v-.34h1.85v7.15c0,.14.05.21.14.2l.35-.02v.36h-2.35v-.36Z"/><path class="b" d="m34.29,7.33l.35.02c.09-.02.14-.09.14-.2V.54c0-.12-.04-.19-.13-.22l-.35.02v-.34h1.85v7.15c0,.14.05.21.14.2l.35-.02v.36h-2.35v-.36Z"/><path class="b" d="m40.87,3.63c.38.35.58.84.58,1.48v.39h-3.03c0,.6.11,1.06.33,1.38.22.32.55.48.99.48.33,0,.61-.08.85-.25s.41-.37.53-.6l.28.2c-.16.34-.42.61-.77.8-.35.19-.78.28-1.28.28-.83,0-1.44-.19-1.83-.57-.39-.38-.58-.96-.58-1.76s.2-1.4.6-1.78c.4-.38,1-.57,1.79-.57.64,0,1.15.17,1.53.52Zm-2.22.3c-.14.31-.21.72-.21,1.21h1.4c.07,0,.12-.02.16-.07s.05-.14.05-.27c0-.46-.06-.79-.17-1.01-.12-.22-.3-.33-.56-.33-.3,0-.52.16-.66.47Z"/><path class="b" d="m46.96,7.33v.36h-1.92c.03-.11.05-.26.05-.46v-.47c-.32.69-.85,1.04-1.6,1.04-.46,0-.79-.12-1-.37s-.32-.64-.32-1.18v-2.49c0-.13-.05-.2-.14-.2l-.35.02v-.35h1.86v3.08c0,.36.03.61.09.77.06.15.18.23.37.23.17,0,.33-.07.5-.22.17-.15.3-.37.41-.66.1-.29.16-.64.17-1.05v-1.62c0-.14-.04-.21-.13-.21l-.41.02v-.35h1.92v3.93c0,.13.05.19.14.2l.35-.02Z"/><path class="b" d="m51.25,3.38c.19.18.29.4.29.68,0,.21-.06.37-.18.47-.12.1-.27.16-.45.16-.15,0-.28-.04-.39-.11-.12-.07-.17-.18-.17-.32,0-.05.01-.12.04-.22.02-.13.03-.2.03-.21,0-.15-.07-.23-.2-.23-.18,0-.35.1-.49.31-.14.21-.25.46-.33.77s-.12.61-.13.89v1.58c0,.13.05.2.14.2l.73-.02v.36h-2.67v-.36l.29.02c.09,0,.14-.07.14-.2v-3.4c0-.14-.05-.21-.14-.21l-.34.02v-.35h1.91s-.03.11-.04.21c-.01.09-.02.19-.02.28v.48c.25-.71.67-1.07,1.24-1.07.3,0,.55.09.74.26Z"/><path class="b" d="m54.17,7.3l.37.02h.02c.12,0,.18-.08.18-.23V2.01c0-.08-.02-.15-.05-.18-.04-.04-.1-.05-.19-.05l-.33.02v-.39h2.77c.79,0,1.38.15,1.76.44.38.29.57.73.57,1.33s-.18,1.04-.55,1.38c-.37.35-.86.52-1.49.52h-1.03v2.01c0,.15.07.23.21.23l.52-.02v.39h-2.75v-.39Zm2.6-2.6c.28,0,.51-.14.7-.43.19-.29.28-.65.28-1.09,0-.41-.09-.75-.28-1.01-.19-.26-.43-.39-.73-.39h-.42s-.06.01-.08.04c-.03.02-.04.05-.04.09v2.8h.58Z"/><path class="b" d="m63.64,3.38c.19.18.29.4.29.68,0,.21-.06.37-.18.47-.12.1-.27.16-.45.16-.15,0-.28-.04-.39-.11-.12-.07-.17-.18-.17-.32,0-.05.01-.12.04-.22.02-.13.03-.2.03-.21,0-.15-.07-.23-.2-.23-.18,0-.35.1-.49.31-.14.21-.25.46-.33.77s-.12.61-.13.89v1.58c0,.13.05.2.14.2l.73-.02v.36h-2.67v-.36l.29.02c.09,0,.14-.07.14-.2v-3.4c0-.14-.05-.21-.14-.21l-.34.02v-.35h1.91s-.03.11-.04.21c-.01.09-.02.19-.02.28v.48c.25-.71.67-1.07,1.24-1.07.3,0,.55.09.74.26Z"/><path class="b" d="m66.14,7.15c0,.14.05.21.14.2l.35-.02v.36h-2.35v-.36l.35.02h.02c.08,0,.12-.07.12-.2v-3.4c0-.12-.04-.19-.13-.21l-.35.02v-.35h1.85v3.93Zm-.13-6.19c.15.12.23.28.23.47s-.08.36-.23.48-.35.18-.58.18-.43-.06-.58-.18-.23-.28-.23-.48.08-.35.23-.47.35-.18.58-.18.43.06.58.18Z"/><path class="b" d="m72.34,7.33v.36h-2.84v-.36l.52.03h.01s.07-.02.08-.05c.01-.04,0-.07-.02-.09l-.99-1.4-1.01,1.39-.02.04c0,.07.05.11.14.11l.45-.02v.36h-1.63v-.36l.41.02c.08,0,.16-.05.22-.14l1.22-1.71-1.28-1.82c-.05-.09-.12-.14-.2-.14l-.37.02v-.35h2.77v.35l-.48-.02s-.09.01-.11.04c-.02.02-.02.06.02.1l.97,1.36,1.03-1.32s.03-.07.03-.09c0-.06-.03-.08-.09-.08l-.45.02v-.35h1.61v.35l-.4-.02s-.08.01-.13.04c-.05.03-.1.07-.13.12l-1.25,1.64,1.33,1.87c.06.09.13.14.2.14l.42-.02Z"/><path class="b" d="m75.79,2.13c.57-.55,1.38-.83,2.43-.83.3,0,.57.03.81.08s.52.12.83.22c.13.04.26.08.38.11s.22.05.31.05c-.03.18-.04.39-.04.63,0,.13.01.4.04.82h-.53s.01-.11.01-.19c-.01-.43-.17-.77-.46-1.01-.29-.24-.7-.36-1.24-.36-.58,0-1.03.26-1.35.77-.32.51-.47,1.26-.47,2.25,0,1.84.57,2.77,1.71,2.77.22,0,.41-.03.57-.1.16-.07.32-.18.46-.35v-1.56c0-.15-.07-.23-.2-.23l-.62.02v-.38h2.81v.38l-.34-.02c-.06,0-.11.02-.15.06s-.05.09-.05.16v1.91c-.07-.01-.14-.02-.2-.02-.1,0-.2.01-.29.04-.1.03-.22.07-.38.13-.28.1-.55.18-.8.24-.26.06-.56.09-.9.09-1,0-1.79-.27-2.36-.82s-.85-1.35-.85-2.41.29-1.88.86-2.43Z"/><path class="b" d="m86.24,7.33v.36h-1.91c.03-.17.04-.3.04-.39v-.28c-.3.48-.78.73-1.44.73-.44,0-.78-.1-1-.3-.23-.2-.34-.5-.34-.89,0-.51.22-.89.67-1.14.45-.25,1.16-.37,2.12-.37v-.74c0-.27-.05-.47-.14-.62s-.28-.22-.57-.22c-.25,0-.42.04-.52.13s-.15.19-.15.31c0,.09.02.17.05.24.03.1.04.17.04.21,0,.15-.05.27-.16.36-.11.08-.25.13-.42.13-.2,0-.36-.06-.48-.17-.12-.12-.18-.26-.18-.44,0-.34.18-.61.53-.81s.82-.3,1.42-.3c1.3,0,1.96.47,1.96,1.4v2.64c0,.13.04.2.14.2l.35-.02Zm-2.15-.49c.16-.19.25-.43.29-.73v-.69c-.48,0-.82.08-1.04.25s-.33.42-.33.76c0,.46.17.69.52.69.22,0,.4-.09.56-.28Z"/><path class="b" d="m90.48,3.38c.19.18.29.4.29.68,0,.21-.06.37-.18.47-.12.1-.27.16-.45.16-.15,0-.28-.04-.39-.11-.12-.07-.17-.18-.17-.32,0-.05.02-.12.04-.22.02-.13.03-.2.03-.21,0-.15-.07-.23-.2-.23-.18,0-.35.1-.49.31-.14.21-.25.46-.33.77-.08.31-.12.61-.13.89v1.58c0,.13.04.2.14.2l.73-.02v.36h-2.67v-.36l.3.02c.09,0,.14-.07.14-.2v-3.4c0-.14-.05-.21-.14-.21l-.34.02v-.35h1.91s-.03.11-.04.21c-.01.09-.02.19-.02.28v.48c.25-.71.67-1.07,1.24-1.07.3,0,.55.09.74.26Z"/><path class="b" d="m95.66,7.33v.36h-1.91c.03-.17.04-.3.04-.39v-.28c-.3.48-.78.73-1.44.73-.44,0-.78-.1-1.01-.3-.23-.2-.34-.5-.34-.89,0-.51.22-.89.67-1.14.45-.25,1.16-.37,2.12-.37v-.74c0-.27-.05-.47-.14-.62-.09-.15-.28-.22-.57-.22-.25,0-.42.04-.52.13s-.15.19-.15.31c0,.09.02.17.05.24.03.1.04.17.04.21,0,.15-.05.27-.16.36-.11.08-.25.13-.41.13-.2,0-.36-.06-.48-.17-.12-.12-.19-.26-.19-.44,0-.34.18-.61.53-.81.35-.2.82-.3,1.42-.3,1.3,0,1.96.47,1.96,1.4v2.64c0,.13.04.2.14.2l.35-.02Zm-2.15-.49c.16-.19.25-.43.29-.73v-.69c-.48,0-.82.08-1.04.25-.22.17-.33.42-.33.76,0,.46.17.69.51.69.22,0,.41-.09.56-.28Z"/><path class="b" d="m101.42,7.33v.36h-2.4v-.36l.4.02c.09-.02.14-.09.14-.2v-2.54c0-.36-.03-.62-.09-.77-.06-.15-.19-.23-.4-.23-.18,0-.36.08-.53.23s-.31.38-.43.68c-.11.3-.17.66-.17,1.08v1.55c0,.13.04.2.14.2l.41-.02v.36h-2.41v-.36l.35.02c.09-.02.14-.09.14-.2v-3.4c0-.12-.04-.19-.14-.21l-.35.02v-.35h1.92c-.04.11-.05.23-.05.37v.59c.15-.34.37-.6.65-.78s.6-.28.98-.28c.48,0,.82.12,1.04.36.22.24.33.62.33,1.14v2.53c0,.13.05.2.14.2l.35-.02Z"/><path class="b" d="m103.47,3.22h1.04v.34h-1.04v3.22c0,.25.03.41.1.49.06.08.16.13.29.13.08,0,.17-.04.27-.11.09-.07.17-.17.21-.3l.28.16c-.09.22-.23.39-.43.49-.19.1-.44.15-.73.15-.43,0-.76-.08-1.01-.25-.25-.17-.37-.43-.37-.78v-3.2h-.63v-.34c.28,0,.49-.03.64-.08s.27-.15.35-.3c.09-.15.17-.38.25-.69h.77v1.07Z"/><path class="b" d="m106.93,7.15c0,.14.04.21.14.2l.35-.02v.36h-2.35v-.36l.35.02h.02c.08,0,.12-.07.12-.2v-3.4c0-.12-.04-.19-.13-.21l-.35.02v-.35h1.85v3.93Zm-.13-6.19c.15.12.23.28.23.47s-.08.36-.23.48-.35.18-.58.18-.43-.06-.58-.18-.23-.28-.23-.48.08-.35.23-.47.35-.18.58-.18.43.06.58.18Z"/><path class="b" d="m109.5.95s.05.12.05.22-.02.17-.05.22-.09.06-.15.06c-.03,0-.06,0-.08-.02-.02-.01-.05-.04-.08-.06-.03-.03-.06-.06-.09-.08-.03-.02-.07-.03-.12-.03-.04,0-.08.01-.11.04v.03s0,.05.03.09c.02.04.05.07.08.09.03.02.07.03.12.04,0,0,.03,0,.06.02.04.01.06.04.08.07.03.04.04.08.04.12,0,.07-.06.14-.18.2-.08.04-.14.06-.2.06-.06,0-.11-.03-.15-.1-.01-.02-.02-.05-.02-.08,0-.02,0-.05.02-.1s.02-.08.02-.1c0-.04-.01-.09-.04-.13-.02-.04-.04-.07-.09-.07-.04,0-.07.03-.09.07-.03.04-.04.08-.04.12,0,.02,0,.06.02.1.01.04.02.08.02.1,0,.03,0,.06-.03.09-.04.07-.09.11-.15.11-.03,0-.1-.02-.2-.07-.12-.06-.18-.13-.18-.21,0-.03.01-.06.03-.1.02-.03.04-.05.05-.06.02-.01.05-.02.1-.03.05-.01.09-.03.12-.04.03-.02.05-.04.08-.09.01-.02.02-.05.02-.07s0-.04,0-.05c-.03-.02-.07-.04-.1-.04-.05,0-.09,0-.11.02-.03.02-.06.04-.1.08-.03.03-.05.05-.07.06-.02.01-.05.02-.09.02-.07,0-.13-.02-.16-.06-.03-.04-.05-.12-.05-.22,0-.19.07-.28.2-.28.04,0,.06,0,.09.02.02.01.04.04.07.06.03.03.06.06.09.07.03.02.07.03.12.03.04,0,.08-.01.11-.03,0-.01,0-.03,0-.04,0-.02,0-.05-.03-.08-.02-.04-.05-.07-.08-.09-.03-.02-.07-.03-.12-.04-.04-.01-.08-.02-.1-.03-.02,0-.04-.03-.05-.06-.02-.05-.04-.09-.04-.12,0-.07.06-.14.19-.2.07-.04.13-.07.19-.07s.11.03.15.1c.02.03.03.06.03.09,0,.02,0,.05-.02.1-.01.04-.02.08-.02.11,0,.04.01.08.04.12.02.04.04.07.09.07.04,0,.07-.03.09-.07.02-.04.04-.08.04-.13,0-.03,0-.06-.02-.1s-.02-.08-.02-.1c0-.03,0-.06.02-.09.04-.07.09-.1.15-.1.04,0,.11.02.2.07.12.06.18.13.18.21,0,.03,0,.07-.03.11-.02.04-.05.06-.08.07-.04.01-.06.02-.06.02-.05.01-.09.03-.12.04-.03.02-.05.04-.08.09-.03.04-.04.08-.02.12.03.02.06.03.11.03.05,0,.09,0,.12-.03s.06-.04.09-.08c.02-.02.04-.04.07-.06.03-.02.06-.02.09-.02.07,0,.12.02.16.06Z"/><path class="b" d="m112.25,6.19l.36-.02c0,.36.15.66.45.89.3.24.66.36,1.08.36.23,0,.41-.05.55-.16.14-.11.21-.26.21-.46,0-.16-.05-.29-.15-.38s-.28-.17-.52-.24l-.76-.21c-.41-.11-.71-.28-.9-.52-.19-.23-.29-.53-.29-.88,0-.43.15-.79.45-1.06.3-.27.73-.4,1.27-.4.15,0,.28.01.4.03.12.02.27.06.44.11.22.06.4.09.53.09.11,0,.22-.03.31-.08l-.06,1.2h-.32c0-.27-.11-.5-.33-.69s-.52-.29-.9-.29c-.22,0-.39.05-.52.16-.13.11-.2.24-.2.41,0,.13.05.25.15.34.1.09.24.17.43.21l.73.19c.48.13.81.31.99.54.18.23.27.53.27.89,0,.5-.17.88-.5,1.16-.34.28-.78.42-1.34.42-.16,0-.32-.02-.49-.05-.16-.03-.42-.09-.77-.18-.11-.03-.21-.04-.29-.04-.15,0-.26.02-.33.06l.05-1.39Z"/><path class="b" d="m121.53,7.33v.36h-1.92c.04-.11.05-.26.05-.46v-.47c-.32.69-.85,1.04-1.6,1.04-.46,0-.79-.12-1-.37-.21-.25-.32-.64-.32-1.18v-2.49c0-.13-.04-.2-.14-.2l-.35.02v-.35h1.86v3.08c0,.36.03.61.09.77.06.15.19.23.38.23.17,0,.33-.07.5-.22.17-.15.3-.37.41-.66s.16-.64.17-1.05v-1.62c0-.14-.04-.21-.13-.21l-.41.02v-.35h1.93v3.93c0,.13.04.19.14.2l.35-.02Z"/><path class="b" d="m125.81,3.38c.19.18.29.4.29.68,0,.21-.06.37-.18.47-.12.1-.27.16-.45.16-.15,0-.28-.04-.39-.11-.12-.07-.17-.18-.17-.32,0-.05.02-.12.04-.22.02-.13.03-.2.03-.21,0-.15-.07-.23-.2-.23-.18,0-.35.1-.49.31-.14.21-.25.46-.33.77-.08.31-.12.61-.13.89v1.58c0,.13.04.2.14.2l.73-.02v.36h-2.67v-.36l.29.02c.09,0,.14-.07.14-.2v-3.4c0-.14-.05-.21-.14-.21l-.34.02v-.35h1.91s-.03.11-.04.21c-.01.09-.02.19-.02.28v.48c.25-.71.67-1.07,1.24-1.07.3,0,.55.09.74.26Z"/><path class="b" d="m133,6.2h-3.16l-.65,1.49h-.88l2.7-5.95h.84l2.7,5.95h-.89l-.66-1.49Zm-.3-.68l-1.28-2.92-1.28,2.92h2.57Z"/><path class="b" d="m135.44,1.74h.85v5.21h3.22v.74h-4.07V1.74Z"/><path class="b" d="m140.48,1.74h.85v5.21h3.22v.74h-4.07V1.74Z"/><path class="b" d="m145.28,7.15c0-.34.26-.58.58-.58s.56.24.56.58-.26.59-.56.59-.58-.25-.58-.59Z"/><path class="b" d="m147.06,4.71c0-1.76,1.34-3.04,3.15-3.04.92,0,1.72.31,2.26.93l-.55.54c-.46-.48-1.02-.71-1.67-.71-1.34,0-2.34.97-2.34,2.29s.99,2.29,2.34,2.29c.65,0,1.21-.23,1.67-.71l.55.54c-.54.61-1.34.94-2.27.94-1.8,0-3.14-1.28-3.14-3.04Z"/><path class="b" d="m153.08,4.71c0-1.74,1.34-3.04,3.17-3.04s3.15,1.29,3.15,3.04-1.34,3.04-3.15,3.04-3.17-1.3-3.17-3.04Zm5.47,0c0-1.32-.99-2.29-2.3-2.29s-2.32.97-2.32,2.29.99,2.29,2.32,2.29,2.3-.97,2.3-2.29Z"/><path class="b" d="m166.22,7.69V3.35s-2.16,3.61-2.16,3.61h-.39l-2.15-3.59v4.31h-.81V1.74h.7l2.48,4.18,2.45-4.18h.7v5.95s-.81,0-.81,0Z"/></svg>